<?xml version="1.0" encoding="utf-8"?>
<COLLADA xmlns="http://www.collada.org/2005/11/COLLADASchema" version="1.4.1" xmlns:xsi="http://www.w3.org/2001/XMLSchema-instance">
  <asset>
    <contributor>
      <author>Blender User</author>
      <authoring_tool>Blender 4.5.6 LTS commit date:2026-01-19, commit time:19:36, hash:a78963ed6435</authoring_tool>
    </contributor>
    <created>2026-01-23T11:45:41</created>
    <modified>2026-01-23T11:45:41</modified>
    <unit name="meter" meter="1"/>
    <up_axis>Z_UP</up_axis>
  </asset>
  <library_effects/>
  <library_images/>
  <library_geometries>
    <geometry id="U60_Left_Flap-mesh" name="U60_Left_Flap">
      <mesh>
        <source id="U60_Left_Flap-mesh-positions">
          <float_array id="U60_Left_Flap-mesh-positions-array" count="549">-0.2951561 0.01483607 -0.01534849 -0.2951558 0.01427602 -0.01499211 -0.3003708 0.01438456 -0.01506942 -0.2951567 0.01609313 -0.01576137 -0.2951565 0.01544743 -0.01560717 -0.3004671 0.01545208 -0.01558488 -0.2951571 0.01741588 -0.0157423 -0.2951569 0.0167554 -0.01580685 -0.3005862 0.01663213 -0.01580351 -0.2951554 0.01378273 -0.01454788 -0.3003247 0.0137813 -0.01454472 -0.3004313 0.01507836 -0.01546287 -0.3005042 0.01583904 -0.01571124 -0.3007016 0.01766413 -0.01568508 -0.2951572 0.0180568 -0.01556926 -0.2951571 0.0186603 -0.01529252 -0.3007479 0.01804351 -0.01553577 -0.3008194 0.01863032 -0.01530492 -0.300823 0.01865845 -0.0152893 -0.295157 0.01805686 -0.01556932 -0.295157 0.01866012 -0.01529264 -0.05629885 0.01872515 -0.01543617 -0.05629736 0.01383876 -0.01470112 -0.2951558 0.01427602 -0.01499211 0.0631572 0.01875531 -0.01550793 0.3164237 0.01835024 -0.01588827 0.1826986 0.01878356 -0.0155797 0.3163656 0.01881259 -0.01566004 0.3165149 0.01758062 -0.01612061 -0.295157 0.01741588 -0.0157423 0.3166038 0.01677942 -0.01619428 -0.2951568 0.01675528 -0.01580691 0.3166866 0.01598101 -0.0161066 -0.2951567 0.01609301 -0.01576143 0.3167241 0.0155912 -0.01598143 -0.2951564 0.01544743 -0.01560717 0.3167603 0.01521474 -0.01586073 -0.2951561 0.01483607 -0.01534843 0.3168214 0.01451528 -0.01546788 0.06315857 0.0138638 -0.01477795 0.1826999 0.01388591 -0.01485508 0.3168678 0.01390707 -0.01494181 -0.2993187 -7.44067e-4 9.01918e-4 -0.2994611 0.001312792 -0.001285433 -0.2949433 -6.39653e-4 7.88578e-4 -0.2949116 -0.002799034 0.003084778 -0.2991744 -0.002827227 0.003117024 -0.2950348 0.00557959 -0.005824744 -0.2949743 0.001464962 -0.001449465 -0.2997426 0.005376458 -0.005606889 0.1592243 0.04129624 0.008691668 0.1617634 0.01925683 0.004091203 0.3144473 0.02970224 0.004993617 -0.147446 0.0198844 0.006854891 -0.1502798 0.04452818 0.0118522 -0.3033137 0.0330407 0.01080054 0.001482009 0.06886327 0.01570039 0.004472196 0.04291218 0.01027196 0.007158696 0.01957064 0.005473077 -0.3081483 0.07508289 0.01932877 -0.3072862 0.0675922 0.01778745 0.01335322 -9.59934e-4 0.001221537 0.1639777 3.56548e-5 8.35266e-5 0.3126001 0.04571312 0.008408188 0.3119508 0.05133742 0.009618639 -0.3025802 0.02665603 0.009524226 -0.3018649 0.02042943 0.008281111 -0.3040664 0.03959065 0.01211303 0.3150318 0.02463316 0.003919243 0.3105973 0.06305456 0.01216411 0.3167017 0.01015186 8.54555e-4 -0.2998201 0.002631247 0.004723727 -0.2991696 -0.003028869 0.00358659 -0.1449287 -0.002007663 0.002419352 -0.3004856 0.008423447 0.005883574 -0.301167 0.01435416 0.007068514 -0.3056325 0.05321544 0.01485884 -0.304839 0.04631292 0.01346474 -0.3064479 0.06030583 0.01629859 0.3112835 0.05711591 0.01086974 0.3132321 0.04023659 0.007235646 0.3138476 0.03490149 0.00609827 0.3156021 0.01968836 0.002872765 0.3161585 0.01486295 0.001851916 0.3172325 0.005549609 -1.21597e-4 0.3177513 0.001051902 -0.001078307 -0.3090355 0.08278644 0.02092629 -0.3099487 0.09071189 0.02258372 -0.001870512 0.09790092 0.02196192 -0.310889 0.09886831 0.02430504 -0.3118577 0.1072652 0.02609419 0.3098915 0.06916052 0.01350498 0.3091651 0.07544046 0.01489508 0.3084173 0.08190155 0.01633769 0.3076473 0.0885511 0.01783603 -0.3061388 0.05761831 0.01575201 -0.3048813 0.05060261 0.001849234 -0.303537 0.03995758 -0.003640115 -0.3021842 0.02931427 -0.009365499 -0.300823 0.01865845 -0.01528924 -0.3003247 0.0137813 -0.01454466 -0.3062177 0.06126439 0.007065176 -0.3118624 0.1074625 0.02563476 -0.311206 0.1019828 0.02379679 -0.3005706 0.01648437 -0.01579815 -0.3007752 0.0182774 -0.01547789 -0.3003855 0.0145601 -0.01518607 -0.3004682 0.01547122 -0.01561254 -0.3006837 0.01750957 -0.01572054 -0.3098926 0.09110552 0.01985722 -0.3092349 0.08570253 0.01775437 -0.3089816 0.0823186 0.02082955 -0.3071188 0.06850659 0.01042568 -0.3080169 0.07577097 0.01363676 -0.3105495 0.09653139 0.0218712 0.3076426 0.08874839 0.0173766 0.3085398 0.08084344 0.01610058 0.3110255 0.05934864 0.01135617 0.3095374 0.07309263 0.01158601 0.311567 0.05665224 0.004401683 0.3109565 0.06156355 0.006663024 0.3134632 0.03823357 0.006808102 0.3121797 0.05174911 0.002052485 0.3168678 0.01390713 -0.01494175 0.3165149 0.01758062 -0.01612055 0.3164237 0.01835024 -0.01588827 0.3177513 0.001051902 -0.001078248 0.3154637 0.02584505 -0.01165038 0.3177466 0.001253068 -0.00154674 0.3082738 0.08349913 0.01554912 0.3089052 0.07828211 0.01361918 0.3103481 0.06648659 0.00883305 0.3101709 0.06792569 0.009448528 0.3136785 0.03985691 -0.003994703 0.3127951 0.0468505 -3.81256e-4 0.314568 0.03285753 -0.007756471 0.3166038 0.01677948 -0.0161947 0.3166866 0.01598107 -0.01610678 0.3168213 0.01451551 -0.01546764 0.3167603 0.01521474 -0.01586097 0.002949237 0.05863291 0.005573809 -0.3058238 0.05811291 0.005555152 -0.3065112 0.06361883 0.008174419 0.3108021 0.06280988 0.007222056 0.0017246 0.06849461 0.01008272 0.00111854 0.07341217 0.01220375 -8.41189e-5 0.08324849 0.01618015 5.15848e-4 0.07832825 0.01423597 -0.3092106 0.08550363 0.01767534 0.3086902 0.08005475 0.01428866 -6.82078e-4 0.08817911 0.01803773 -0.001278817 0.09312683 0.01981091 -0.311201 0.1019415 0.02378302 -0.001875162 0.09809821 0.02150249 0.3081734 0.08434313 0.01581186 -0.3098761 0.09096956 0.01980602 0.3097416 0.07142311 0.010908 -0.3085421 0.08004194 0.01544737 -0.3078698 0.07457786 0.0131213 0.3092151 0.07573407 0.01263594 0.3102704 0.06711673 0.009103596 -0.3071931 0.0691055 0.01069682 0.3113371 0.05849784 0.00526303 0.002334654 0.06356996 0.007872641 0.311876 0.05417591 0.003226816 0.3129668 0.04548698 -0.00107336 0.004193842 0.04870313 7.14581e-4 0.003568828 0.05367887 0.003187298 0.3135195 0.04111236 -0.003334581 0.3140774 0.03671306 -0.005667328 0.005461633 0.03867089 -0.004481196 -0.3105393 0.09644639 0.0218411 0.006754994 0.02850699 -0.009992241 0.008004724 0.01873856 -0.01547473 0.3152099 0.02782863 -0.01053732 -0.3051303 0.05258268 0.002840697 -0.3037236 0.04143112 -0.002864658 -0.3044304 0.04702347 3.321e-5 -0.3022884 0.03013181 -0.008918285 -0.3030097 0.03580176 -0.005849719 -0.3015595 0.02441823 -0.0120663 0.3124191 0.04984033 0.001114308 -0.05629736 0.01383876 -0.01470118</float_array>
          <technique_common>
            <accessor source="#U60_Left_Flap-mesh-positions-array" count="183" stride="3">
              <param name="X" type="float"/>
              <param name="Y" type="float"/>
              <param name="Z" type="float"/>
            </accessor>
          </technique_common>
        </source>
        <source id="U60_Left_Flap-mesh-normals">
          <float_array id="U60_Left_Flap-mesh-normals-array" count="621">0.001331925 -0.5368239 -0.8436933 -0.004285037 -0.2323297 -0.9726276 -0.002822875 0.09722971 -0.995258 -2.75582e-4 -0.6691772 -0.7431029 -0.003810226 -0.4935197 -0.8697263 0.002070188 -0.3896894 -0.920944 -0.006099045 -0.06847691 -0.9976341 -0.005182564 0.1134407 -0.9935312 0.001697719 0.2606408 -0.9654343 -0.006439328 0.4168384 -0.9089578 -6.59754e-4 0.4866052 -0.8736217 1.03759e-4 0.366061 -0.9305908 -0.006448268 0.3654434 -0.9308112 0.002003252 -0.1153079 -0.9933278 0.00581628 -0.3099802 -0.9507252 -0.004261136 -0.3107401 -0.9504853 -0.002480626 -0.6563782 -0.754428 -6.59713e-4 0.4168546 -0.908973 -3.19736e-4 -0.6691737 -0.7431061 -6.76316e-4 0.4264442 -0.9045137 -6.43287e-4 0.4406692 -0.8976694 -6.51214e-4 0.4140703 -0.9102447 -6.35221e-4 0.4425122 -0.8967623 -6.6989e-4 0.2889332 -0.957349 -6.28532e-4 0.2605972 -0.9654474 -6.34219e-4 0.09151953 -0.9958031 -6.41723e-4 0.09728842 -0.995256 -5.80765e-4 -0.1092333 -0.9940159 -6.29069e-4 -0.06847691 -0.9976525 -5.10575e-4 -0.3057385 -0.9521154 -5.91239e-4 -0.2324337 -0.972612 -6.08202e-4 -0.3053755 -0.9522318 -3.17109e-4 -0.668276 -0.7439134 -4.71782e-4 -0.3896914 -0.9209454 -4.86418e-4 -0.4897033 -0.871889 -3.44421e-4 -0.6607739 -0.7505849 -3.64868e-4 -0.6566427 -0.7542017 -3.85848e-4 -0.6542195 -0.7563048 -3.74098e-4 -0.5368277 -0.8436919 -3.59602e-4 -0.7285177 -0.685027 -3.64223e-4 -0.7284802 -0.6850668 -2.24063e-4 -0.728487 -0.6850597 -3.35537e-4 -0.7284916 -0.6850548 -3.34156e-4 -0.7285107 -0.6850344 -3.61391e-4 -0.7284827 -0.685064 -2.74899e-4 -0.7285023 -0.6850433 -2.77143e-4 -0.728478 -0.6850691 0.008130431 -0.2034307 0.9790556 0.008114218 -0.1978333 0.9802021 0.007868051 -0.2038731 0.9789657 0.007867634 -0.2038731 0.9789657 0.007943153 -0.1978525 0.9801996 0.008349359 -0.2004535 0.9796677 0.008338093 -0.2034074 0.9790586 0.00791037 -0.2005026 0.9796612 0.007548987 -0.2007039 0.9796229 0.008740246 -0.2031406 0.9791105 0.007841229 -0.2095311 0.9777706 0.008370876 -0.1948479 0.9807978 0.007943332 -0.1955987 0.9806519 0.008337795 -0.2064077 0.9784306 0.007303237 -0.2069423 0.9783259 0.008514344 -0.203166 0.9791073 0.008349895 -0.2003571 0.9796873 0.008718132 -0.1960041 0.9805643 0.008739173 -0.1953648 0.9806917 0.008377671 -0.1949915 0.9807692 0.008371114 -0.1948079 0.9808057 0.008359372 -0.1950924 0.9807492 0.007952451 -0.1970871 0.9803537 0.007963895 -0.1962458 0.9805224 0.007890701 -0.1981194 0.9801462 0.007761597 -0.1993283 0.979902 0.007435381 -0.2012631 0.979509 0.00806427 -0.2120608 0.9772232 0.007921516 -0.2107284 0.9775126 0.007811665 -0.2084891 0.9779935 0.007819294 -0.2076319 0.9781758 0.007849693 -0.2069539 0.9783192 0.008327901 -0.2061248 0.9784903 0.008327841 -0.2060531 0.9785054 0.00832355 -0.2061884 0.9784769 0.008739829 -0.2065161 0.9784042 0.008760035 -0.2070835 0.978284 0.008360147 -0.1976446 0.9802381 0.008577883 -0.1976202 0.9802411 0.00873959 -0.2002437 0.9797071 0.007413566 -0.2022317 0.9793096 0.007333576 -0.2038872 0.978967 0.006874322 -0.2100254 0.9776718 0.006776034 -0.2057353 0.9785842 0.006767034 -0.2076444 0.978181 0.007159948 -0.2136873 0.9768759 0.007158935 -0.2153372 0.9765136 0.00704801 -0.2100059 0.9776747 0.006493806 -0.2171874 0.9761084 0.006387233 -0.2191047 0.9756805 -0.9936132 -0.106984 -0.03587883 -0.9936131 -0.1069831 -0.035883 -0.993613 -0.1069856 -0.035878 -0.9936134 -0.1069797 -0.03588461 -0.9936131 -0.1069822 -0.03588557 -0.9936138 -0.1069853 -0.0358572 -0.9936233 -0.1069343 -0.03574538 -0.9936006 -0.1070358 -0.0360713 -0.9936136 -0.1069834 -0.03586786 -0.9936201 -0.1069631 -0.03574728 -0.9936133 -0.1069818 -0.03588312 -0.9936164 -0.1069659 -0.03584265 -0.9936131 -0.1069845 -0.03587722 -0.9936134 -0.1069822 -0.03587657 -0.9936131 -0.1069841 -0.03588032 -0.9936134 -0.1069837 -0.03587639 -0.9936138 -0.106983 -0.03586274 -0.9936133 -0.1069812 -0.03588515 -0.9936134 -0.1069822 -0.03587877 -0.9936133 -0.1069836 -0.03587645 -0.9936134 -0.1069815 -0.03588116 0.03299885 0.9184857 0.3940752 0.0329988 0.9184829 0.3940815 0.9936133 0.1069844 0.03587472 0.993613 0.1069856 0.03587889 0.9936135 0.1069807 0.0358799 0.9936134 0.1069769 0.03589075 0.9936132 0.1069811 0.03588545 0.9936065 0.1070159 0.03596836 0.9936138 0.1069784 0.03587871 0.9936133 0.1069839 0.03587567 0.9936138 0.1069769 0.03588199 0.9936136 0.1069788 0.03588098 0.9936115 0.1069892 0.0359106 0.9936128 0.1069841 0.03588747 0.9936141 0.1069767 0.03587466 0.9936138 0.1069772 0.03588223 0.9936136 0.1069787 0.03588163 0.9936127 0.1069846 0.03589117 0.9936131 0.1069831 0.03588312 0.9936128 0.1069864 0.03588193 0.9936138 0.1069807 0.03587347 0.9936079 0.1069964 0.03598511 0.9936137 0.1069762 0.03588861 0.9936105 0.1069928 0.03592735 0.9936081 0.1070063 0.03595179 0.993635 0.1068663 0.03562486 0.9936137 0.1069794 0.03587806 -6.68772e-4 0.4295168 -0.9030586 -0.001217246 0.3959217 -0.9182835 -0.001819014 0.3672997 -0.9301009 -0.002556562 0.3370989 -0.9414658 -0.003043711 0.3176636 -0.9481986 -0.003102004 0.3217846 -0.9468078 -0.001858532 0.3630028 -0.9317862 -0.001807928 0.3673009 -0.9301004 -0.001505136 0.3818686 -0.9242154 -0.001233041 0.39592 -0.9182841 -0.002164423 0.3523243 -0.9358755 -0.001491725 0.38187 -0.9242149 -0.001016795 0.4049543 -0.9143364 -9.86147e-4 0.4093409 -0.9123809 -7.98768e-4 0.4220269 -0.906583 -5.50772e-4 0.4449817 -0.8955395 -0.001004219 0.409339 -0.9123818 -4.23977e-4 0.4684286 -0.8835013 -0.002561926 0.3370983 -0.941466 -0.002982079 0.3217976 -0.9468038 -6.50401e-4 0.489368 -0.8720771 -5.05512e-4 0.4766054 -0.8791172 -6.29995e-4 0.4939464 -0.8694921 -0.002172529 0.3523234 -0.9358758 -0.002616703 0.3329104 -0.9429548 -0.002219974 0.3480741 -0.9374644 -0.001536071 0.377544 -0.9259904 -0.001255035 0.3915604 -0.9201515 -8.19108e-4 0.4220248 -0.906584 -8.21794e-4 0.4176232 -0.90862 -6.76328e-4 0.4339276 -0.9009475 -5.74597e-4 0.4449793 -0.8955407 -5.35388e-4 0.4600348 -0.8879007 -5.54123e-4 0.4759117 -0.8794929 -0.008307516 0.481745 -0.876272 -6.61259e-4 0.4882482 -0.8727046 -6.50188e-4 0.4893681 -0.8720771 -5.56481e-4 0.4405665 -0.8977198 -5.4216e-4 0.4598385 -0.8880024 -4.8241e-4 0.4507464 -0.8926519 -4.85574e-4 0.485482 -0.8742465 -5.32847e-4 0.4766026 -0.8791187 -4.37413e-4 0.4684318 -0.8834995 -0.002459406 0.3344492 -0.9424105 -0.002686858 0.3344142 -0.9424223 -0.001942813 0.3570623 -0.9340785 -0.001602351 0.3718766 -0.9282808 -0.001299977 0.3863199 -0.9223639 -0.001039505 0.4002334 -0.9164126 -8.21049e-4 0.4135403 -0.9104855 -6.45325e-4 0.4261323 -0.9046607 -4.17325e-4 0.4489822 -0.8935406 -6.54111e-4 0.4339299 -0.9009464 -5.11001e-4 0.4379734 -0.8989877 -3.39344e-4 0.4598588 -0.887992 -3.61672e-4 0.4591457 -0.8883609 -4.56546e-4 0.4920153 -0.8705864 -3.21187e-4 0.4806422 -0.8769168 -3.28487e-4 -0.7269362 -0.6867049 -3.70723e-4 -0.7277991 -0.6857903 -2.68673e-4 -0.7284844 -0.6850623 -2.98935e-4 -0.7267869 -0.686863</float_array>
          <technique_common>
            <accessor source="#U60_Left_Flap-mesh-normals-array" count="207" stride="3">
              <param name="X" type="float"/>
              <param name="Y" type="float"/>
              <param name="Z" type="float"/>
            </accessor>
          </technique_common>
        </source>
        <vertices id="U60_Left_Flap-mesh-vertices">
          <input semantic="POSITION" source="#U60_Left_Flap-mesh-positions"/>
        </vertices>
        <triangles count="207">
          <input semantic="VERTEX" source="#U60_Left_Flap-mesh-vertices" offset="0"/>
          <input semantic="NORMAL" source="#U60_Left_Flap-mesh-normals" offset="1"/>
          <p>0 0 1 0 2 0 3 1 4 1 5 1 6 2 7 2 8 2 1 3 9 3 10 3 2 4 11 4 0 4 4 5 0 5 11 5 7 6 3 6 12 6 8 7 13 7 6 7 14 8 6 8 13 8 15 9 14 9 16 9 17 10 18 10 15 10 16 11 17 11 15 11 13 12 16 12 14 12 12 13 8 13 7 13 5 14 12 14 3 14 11 15 5 15 4 15 10 16 2 16 1 16 19 17 20 17 21 17 22 18 9 18 23 18 24 19 25 19 19 19 25 20 24 20 26 20 19 21 21 21 24 21 26 22 27 22 25 22 25 23 28 23 29 23 29 24 19 24 25 24 28 25 30 25 31 25 31 26 29 26 28 26 30 27 32 27 33 27 33 28 31 28 30 28 32 29 34 29 35 29 35 30 33 30 32 30 34 31 36 31 37 31 22 32 23 32 38 32 37 33 35 33 34 33 36 34 38 34 23 34 39 35 22 35 38 35 40 36 39 36 38 36 38 37 41 37 40 37 23 38 37 38 36 38 42 39 43 39 44 39 44 40 45 40 46 40 10 41 9 41 47 41 48 42 44 42 43 42 43 43 49 43 48 43 46 44 42 44 44 44 47 45 49 45 10 45 49 46 47 46 48 46 50 47 51 47 52 47 53 48 54 48 55 48 50 49 56 49 57 49 54 50 57 50 56 50 57 51 54 51 53 51 58 52 57 52 53 52 58 53 51 53 50 53 50 54 57 54 58 54 54 55 59 55 60 55 61 56 62 56 51 56 50 57 63 57 64 57 53 58 65 58 66 58 54 59 67 59 55 59 51 60 68 60 52 60 56 61 50 61 69 61 51 62 62 62 70 62 51 63 58 63 61 63 71 64 72 64 73 64 74 65 71 65 73 65 53 66 75 66 74 66 66 67 75 67 53 67 55 68 65 68 53 68 54 69 76 69 77 69 77 70 67 70 54 70 78 71 76 71 54 71 60 72 78 72 54 72 59 73 54 73 56 73 79 74 69 74 50 74 64 75 79 75 50 75 80 76 63 76 50 76 81 77 80 77 50 77 52 78 81 78 50 78 82 79 68 79 51 79 83 80 82 80 51 80 70 81 83 81 51 81 84 82 70 82 62 82 85 83 84 83 62 83 58 84 53 84 73 84 73 85 53 85 74 85 73 86 61 86 58 86 86 87 59 87 56 87 87 88 86 88 56 88 87 89 56 89 88 89 89 90 87 90 88 90 88 91 90 91 89 91 56 92 69 92 91 92 56 93 91 93 92 93 88 94 56 94 92 94 88 95 92 95 93 95 93 96 94 96 88 96 95 97 96 97 97 97 98 98 99 98 100 98 95 99 101 99 96 99 90 100 102 100 103 100 100 101 46 101 98 101 104 102 100 102 105 102 104 103 106 103 100 103 104 104 107 104 106 104 105 105 108 105 104 105 99 106 105 106 100 106 72 107 97 107 98 107 98 108 46 108 72 108 109 109 110 109 111 109 112 110 101 110 95 110 113 111 112 111 95 111 111 112 110 112 113 112 114 113 109 113 111 113 103 114 114 114 111 114 103 115 111 115 90 115 95 116 111 116 113 116 72 117 95 117 97 117 94 118 115 118 102 118 102 119 90 119 94 119 116 120 117 120 118 120 119 121 120 121 117 121 117 122 121 122 122 122 123 123 124 123 125 123 121 124 126 124 127 124 127 125 126 125 128 125 94 126 116 126 129 126 118 127 130 127 116 127 129 128 115 128 94 128 116 129 130 129 129 129 131 130 132 130 117 130 117 131 132 131 118 131 117 132 120 132 131 132 133 133 134 133 121 133 122 134 119 134 117 134 121 135 134 135 122 135 121 136 135 136 133 136 127 137 135 137 121 137 27 138 127 138 123 138 125 139 27 139 123 139 123 140 136 140 124 140 123 141 137 141 136 141 137 142 123 142 138 142 138 143 139 143 137 143 128 144 123 144 127 144 140 145 141 145 142 145 143 146 144 146 145 146 146 147 147 147 148 147 149 148 150 148 151 148 152 149 102 149 153 149 154 150 151 150 153 150 146 151 148 151 155 151 156 152 147 152 146 152 147 153 145 153 157 153 145 154 144 154 158 154 159 155 146 155 150 155 160 156 145 156 147 156 161 157 158 157 144 157 162 158 163 158 144 158 164 159 140 159 163 159 165 160 166 160 167 160 144 161 163 161 161 161 168 162 169 162 170 162 151 163 150 163 171 163 153 164 151 164 152 164 20 165 172 165 173 165 174 166 172 166 170 166 26 167 174 167 27 167 150 168 146 168 155 168 171 169 152 169 151 169 155 170 171 170 150 170 157 171 148 171 147 171 158 172 157 172 145 172 163 173 140 173 142 173 142 174 161 174 163 174 141 175 140 175 167 175 167 176 166 176 175 176 170 177 176 177 177 177 172 178 178 178 179 178 20 179 180 179 178 179 20 180 18 180 180 180 26 181 173 181 172 181 175 182 141 182 167 182 166 183 170 183 177 183 177 184 175 184 166 184 172 185 20 185 178 185 170 186 172 186 179 186 179 187 176 187 170 187 153 188 115 188 154 188 151 189 154 189 149 189 150 190 149 190 159 190 146 191 159 191 156 191 147 192 156 192 160 192 145 193 160 193 143 193 144 194 143 194 162 194 163 195 162 195 164 195 181 196 165 196 167 196 181 197 167 197 140 197 140 198 164 198 181 198 168 199 170 199 166 199 166 200 165 200 168 200 174 201 26 201 172 201 170 202 169 202 174 202 123 203 128 203 40 203 128 204 45 204 182 204 45 205 9 205 182 205 182 206 40 206 128 206</p>
        </triangles>
      </mesh>
    </geometry>
  </library_geometries>
  <library_visual_scenes>
    <visual_scene id="Scene" name="Scene">
      <node id="U60_Left_Flap" name="U60_Left_Flap" type="NODE">
        <matrix sid="transform">1 0 0 1.49012e-8 0 1 0 4.84288e-8 0 0 1 -1.00234e-7 0 0 0 1</matrix>
        <instance_geometry url="#U60_Left_Flap-mesh" name="U60_Left_Flap"/>
      </node>
    </visual_scene>
  </library_visual_scenes>
  <scene>
    <instance_visual_scene url="#Scene"/>
  </scene>
</COLLADA>