<?xml version="1.0" encoding="utf-8"?>
<COLLADA xmlns="http://www.collada.org/2005/11/COLLADASchema" version="1.4.1" xmlns:xsi="http://www.w3.org/2001/XMLSchema-instance">
  <asset>
    <contributor>
      <author>Blender User</author>
      <authoring_tool>Blender 4.5.6 LTS commit date:2026-01-19, commit time:19:36, hash:a78963ed6435</authoring_tool>
    </contributor>
    <created>2026-01-23T11:47:40</created>
    <modified>2026-01-23T11:47:40</modified>
    <unit name="meter" meter="1"/>
    <up_axis>Z_UP</up_axis>
  </asset>
  <library_effects/>
  <library_images/>
  <library_geometries>
    <geometry id="U60_RIght_Ailerone-mesh" name="U60_RIght_Ailerone">
      <mesh>
        <source id="U60_RIght_Ailerone-mesh-positions">
          <float_array id="U60_RIght_Ailerone-mesh-positions-array" count="477">-0.2581565 0.004622042 -0.01049906 -0.2623775 0.00585407 -0.01363122 -0.2581488 0.005888044 -0.01365125 -0.2625663 0.004080057 -0.00921607 -0.2581718 0.002155184 -0.004356801 -0.2627151 0.002681195 -0.005734682 -0.2581643 0.003386616 -0.007423162 -0.2628113 0.00177747 -0.00348562 -0.2581799 8.77324e-4 -0.001175045 -0.2629092 8.56984e-4 -0.001194477 -0.1011626 0.01148802 -0.01683944 -0.2581901 0.009577572 -0.01616048 -0.2581954 0.01025098 -0.01610714 -0.1011167 0.00714612 -0.01438695 -0.258154 0.00619179 -0.01425457 -0.009422183 0.007873535 -0.01481395 0.2652589 0.01029217 -0.0166161 0.2652639 0.01367199 -0.01858663 0.08214837 0.01291871 -0.01769232 0.2652589 0.01433819 -0.01854217 -0.009449601 0.01220524 -0.01726645 -0.2581844 0.008904993 -0.01609975 0.2652693 0.0130077 -0.01851963 -0.2581784 0.008252203 -0.01592665 0.2652752 0.01236379 -0.01834315 0.2652813 0.01175826 -0.01806199 -0.2581722 0.007637739 -0.01564621 -0.2581658 0.007079243 -0.01526641 0.265288 0.01114857 -0.01763445 -0.2581597 0.006592631 -0.0147981 0.2652946 0.01062852 -0.01710128 0.08215731 0.008595943 -0.01523917 0.2652311 0.01003062 -0.01608598 0.2644962 0.003124058 9.8899e-4 0.2652311 0.01003086 -0.01608598 0.2696483 0.05187666 -0.006557881 0.2707664 0.06244224 -0.01334828 0.2717248 0.07152563 -0.009703993 0.2702099 0.05717211 -0.01365149 0.2656872 0.01434153 -0.01854413 0.2665476 0.02249002 -0.01735728 0.2738361 0.09150499 -0.01279586 0.2730697 0.08424806 -0.01303803 0.2644943 0.003107309 0.001498579 0.2653546 0.011195 -0.01767283 0.2654252 0.01186227 -0.01811927 0.2652589 0.01029241 -0.0166161 0.2652946 0.01062864 -0.01710128 0.265504 0.01260775 -0.01842397 0.2655876 0.01339828 -0.01857388 0.2674013 0.03057533 -0.01627463 0.2682484 0.03859853 -0.01531493 0.2690892 0.04656016 -0.01449674 0.2713208 0.0676912 -0.01313018 0.2716479 0.07078862 -0.0130428 0.2738381 0.09152138 -0.01329559 0.2722998 0.07695955 -0.01296377 -0.2605195 0.02347266 -0.004080474 -0.1293656 0.0165444 -0.002483069 -0.1275151 0.03405421 -0.005183994 0.1350732 0.02000135 -0.001884341 0.2675485 0.03200769 -0.003294825 0.1371545 0.03969568 -0.005078196 0.004819512 0.03687494 -0.005131125 -0.1254571 0.05352902 -0.008117079 0.007005989 0.05756491 -0.008334338 0.1332283 0.002543151 9.53076e-4 0.2654646 0.01228821 -1.99642e-5 0.003156304 0.001984059 4.12604e-4 0.002853691 0.01827287 -0.002183735 -0.1309652 0.001407444 -1.41441e-4 -0.2582324 0.0451157 -0.007269799 -0.2587145 0.04055297 -0.006607234 -0.2609424 0.01947039 -0.003480851 -0.124338 0.06411945 -0.009665071 0.008194983 0.06881618 -0.01002651 0.009455442 0.08074408 -0.01177567 -0.1231516 0.07534658 -0.01126396 0.2664811 0.02190703 -0.001618087 0.2670081 0.02689421 -0.002446711 0.2681029 0.03725343 -0.004162073 -0.257227 0.05462914 -0.008629918 -0.2625354 0.004396021 -0.001217544 -0.2629112 8.40291e-4 -6.8649e-4 -0.2621511 0.008032858 -0.001762747 0.2649739 0.007645547 7.49353e-4 0.2644943 0.003107309 0.00149846 0.2659667 0.01704019 -8.09155e-4 0.2692562 0.04816609 -0.005953669 0.2698565 0.05384624 -0.006877481 0.2686719 0.04263728 -0.005048453 0.2704734 0.05968475 -0.007819592 0.2711079 0.06568831 -0.008779823 -0.2556074 0.06995534 -0.01075279 -0.256163 0.06469798 -0.01003456 -0.2567027 0.05959117 -0.009326815 -0.2577367 0.04980599 -0.007944107 -0.2591838 0.03611248 -0.005956768 -0.2596406 0.03178888 -0.005318641 -0.2600857 0.02757716 -0.00469315 -0.261355 0.01556593 -0.00289458 -0.2617577 0.01175481 -0.002321779 0.2717606 0.07186442 -0.009757876 0.2724323 0.07822078 -0.01075339 0.2731239 0.08476501 -0.01176619 -0.2621411 0.008085548 -0.01585721 -0.2622497 0.007059633 -0.01523131 -0.2581843 0.008904993 -0.01609975 -0.2619867 0.009547233 -0.01610857 -0.25819 0.009577691 -0.01616048 -0.2581951 0.01025098 -0.01610714 -0.261919 0.0101881 -0.0160951 -0.2619154 0.01022171 -0.01608973 -0.2620316 0.009121179 -0.01611745 -0.2622175 0.007363557 -0.01547986 -0.262338 0.00622636 -0.01434206 -0.2622844 0.006731748 -0.01496309 -0.2556056 0.06997174 -0.01125252 -0.2586498 0.04116517 -0.006696403 -0.2564213 0.06224912 -0.01111644 -0.2598733 0.02956265 -0.01327025 -0.2592056 0.03588563 -0.01255142 -0.261989 0.009566724 -0.001993 -0.2572399 0.0544995 -0.01124423 -0.2575061 0.05197858 -0.01134157 -0.2583516 0.04397284 -0.01182287 -0.2605474 0.02317875 -0.01410931 -0.261228 0.01673239 -0.0150541 -0.2622175 0.007363677 -0.01547962 -0.262338 0.00622648 -0.01434183 -0.2563618 0.06281298 -0.01111674 0.2728637 0.08229833 -0.01300001 -0.2571215 0.05562078 -0.0112093 0.272375 0.07767152 -0.01296293 0.2718843 0.07302641 -0.01299941 0.266771 0.02460592 -0.01706385 -0.2610785 0.01814872 -0.01483881 0.2678322 0.03465592 -0.01577067 -0.2586651 0.04100471 -0.01206344 0.2703955 0.05892992 -0.01354062 0.269892 0.0541625 -0.01385992 -0.2578882 0.04836088 -0.01152747 0.2713912 0.06835776 -0.01310867 0.2708951 0.06366038 -0.01328957 -0.2594546 0.03352874 -0.0128051 0.2693843 0.04935437 -0.01424533 0.2688719 0.04450225 -0.01469415 -0.2602585 0.02591466 -0.01373666 0.2683546 0.03960347 -0.01520365 0.2652854 0.01138055 -0.01781731 0.2654252 0.01186227 -0.01811921 0.2653753 0.01139074 -0.01780396 0.2652669 0.0133 -0.01856291 0.2655041 0.01260775 -0.01842415 0.265276 0.01229149 -0.01831573 0.2655876 0.01339828 -0.01857382 0.2654715 0.01230031 -0.01829832 0.2652946 0.01062852 -0.01710122 0.2653546 0.01119476 -0.01767301</float_array>
          <technique_common>
            <accessor source="#U60_RIght_Ailerone-mesh-positions-array" count="159" stride="3">
              <param name="X" type="float"/>
              <param name="Y" type="float"/>
              <param name="Z" type="float"/>
            </accessor>
          </technique_common>
        </source>
        <source id="U60_RIght_Ailerone-mesh-normals">
          <float_array id="U60_RIght_Ailerone-mesh-normals-array" count="558">0.005695819 -0.9279479 -0.3726665 0.005648493 -0.9279702 -0.3726115 0.005572676 -0.9279519 -0.3726585 0.005522847 -0.9279742 -0.3726035 0.005559623 -0.9279484 -0.3726672 0.005619823 -0.9279365 -0.3726959 0.005565822 -0.9279597 -0.372639 0.005586802 -0.9279649 -0.3726258 -0.005270242 0.07888484 -0.9968698 0.00504893 -0.893169 -0.4496929 0.005146205 -0.9036055 -0.4283345 -0.005146741 0.06655752 -0.9977692 -0.00516057 0.06861066 -0.9976302 -0.005237281 0.0761004 -0.9970864 -0.005135774 0.06366622 -0.9979581 -0.003812909 -0.1003633 -0.9949436 -0.003912389 -0.08995968 -0.9959378 -0.002375721 -0.2643508 -0.9644237 -0.002460002 -0.2562609 -0.9666045 -9.30048e-4 -0.4151995 -0.9097299 -8.79075e-4 -0.4211432 -0.9069937 7.59429e-4 -0.5741387 -0.8187577 6.10535e-4 -0.5623471 -0.8269011 0.002447187 -0.7158643 -0.6982353 0.004982829 -0.8968817 -0.4422424 0.002131223 -0.6934328 -0.7205182 0.003626465 -0.8047761 -0.5935674 0.005114257 -0.9021911 -0.4313063 0.005095958 -0.8992145 -0.4374784 0.003831148 -0.8219365 -0.5695664 0.005536973 -0.9270845 -0.3748117 0.005532979 -0.9271003 -0.3747724 0.005688369 -0.9279458 -0.3726717 0.005600869 -0.9275949 -0.3735457 0.9944676 -0.1050432 3.08903e-4 0.9944674 -0.1050459 3.04632e-4 0.9944674 -0.105045 3.2184e-4 0.9944676 -0.1050439 3.18275e-4 0.9944633 -0.1050844 2.69089e-4 0.9944664 -0.1050553 3.11669e-4 0.9944764 -0.1049588 3.83184e-4 0.9944365 -0.1053377 5.60308e-5 0.994477 -0.104954 4.04001e-4 0.9944647 -0.1050705 2.74124e-4 0.9944641 -0.1050766 2.65822e-4 0.9944673 -0.1050462 3.099e-4 0.9944674 -0.1050456 3.09427e-4 0.9944679 -0.1050409 2.99223e-4 0.9944676 -0.1050438 3.03611e-4 0.9944673 -0.1050456 3.04859e-4 0.9944673 -0.1050466 3.175e-4 0.9944689 -0.1050313 3.00198e-4 0.9944674 -0.1050447 3.43884e-4 0.9944673 -0.1050457 3.11398e-4 0.994467 -0.1050499 3.04341e-4 0.9944674 -0.1050456 3.09529e-4 -0.003961384 0.1528576 0.9882403 -0.004036903 0.1604936 0.9870287 -0.003577589 0.1492968 0.9887859 -0.003664195 0.1533741 0.9881614 -0.004594683 0.1608955 0.9869608 -0.003814995 0.1604709 0.9870332 -0.004792571 0.1609157 0.9869565 -0.004287481 0.1569325 0.9876 -0.004236042 0.1528857 0.9882348 -0.003738641 0.1568763 0.9876111 -0.004755735 0.1573197 0.9875362 -0.003050327 0.1533111 0.9881733 -0.002809107 0.1439901 0.9895752 -0.004194676 0.1485906 0.9888899 -0.002792596 0.1449202 0.9894394 -0.003332316 0.1492716 0.9887906 -0.002583324 0.1489921 0.988835 -0.00192666 0.1411916 0.9899804 -0.004382073 0.1643535 0.9863918 -0.003852307 0.1635097 0.9865342 -0.002640962 0.1449045 0.9894421 -0.004722237 0.1482074 0.988945 -0.004709661 0.148733 0.9888662 -0.004801392 0.1633639 0.9865542 -0.004825115 0.1639721 0.9864532 -0.004386425 0.1642814 0.9864037 -0.004383027 0.164422 0.9863803 -0.004366695 0.1640632 0.9864402 -0.003777623 0.1609189 0.9869604 -0.00386548 0.1628446 0.9866442 -0.00384587 0.1619663 0.9867888 -0.003642976 0.159682 0.9871618 -0.003428757 0.1582844 0.9873876 -0.003161191 0.1569361 0.9876037 -0.002452671 0.1453481 0.9893775 -0.001693129 0.1355351 0.9907711 -0.002155184 0.1412152 0.9899766 -0.002172946 0.1375017 0.9904991 -0.00223577 0.1393184 0.9902451 -0.002675294 0.1410525 0.9899985 -0.002718627 0.1425825 0.9897792 -0.003535091 0.1453064 0.9893804 -0.003517568 0.146372 0.9892234 -0.003532826 0.1472706 0.98909 -0.003568947 0.1480022 0.9889806 -0.004186809 0.1489273 0.9888393 -0.004187762 0.1490579 0.9888197 -0.004184484 0.1489681 0.9888331 -0.004468321 0.1533397 0.9881634 -0.004241526 0.1533165 0.9881681 -0.004292547 0.1573285 0.987537 -0.003155052 0.1567382 0.9876351 -0.002731025 0.1490073 0.9888324 -0.00279963 0.155021 0.9879072 -0.00273472 0.1532176 0.9881887 -0.002251863 0.1453275 0.989381 -0.002342402 0.1512646 0.9884905 0.001514196 -0.4151787 -0.9097386 -0.00286889 -0.6934642 -0.7204853 -0.01289319 -0.09000629 -0.9958577 -0.005875885 0.1591785 -0.9872323 0.005751013 0.0203219 -0.9997769 -0.009948432 -0.2563173 -0.9665415 -0.005095779 -0.4627899 -0.8864533 0.004097461 -0.5623155 -0.8269125 0.005759477 -0.8047574 -0.593576 0.002018213 -0.8931891 -0.4496766 0.004926919 -0.8859435 -0.463767 -9.08378e-4 -0.7755871 -0.6312399 0.009568333 -0.6337226 -0.7735013 -0.003622353 -0.6328207 -0.77429 -0.006781339 -0.2430316 -0.9699947 -0.004551947 0.07890158 -0.996872 -0.01384699 0.02241671 -0.9996529 -0.0405212 0.9986447 0.03266096 -0.0405212 0.9986445 0.03266566 -0.9944673 0.1050468 -3.09181e-4 -0.9944669 0.1050497 -3.20981e-4 -0.9944676 0.1050431 -3.12349e-4 -0.9944681 0.1050387 -3.20306e-4 -0.9944673 0.1050454 -2.82015e-4 -0.9944676 0.1050442 -3.11014e-4 -0.9944676 0.1050428 -2.25356e-4 -0.9944674 0.105045 -3.17544e-4 -0.9944673 0.1050468 -3.12463e-4 -0.9944673 0.1050454 -3.1555e-4 -0.9944675 0.1050444 -3.16123e-4 -0.9944674 0.1050454 -3.08698e-4 -0.9944676 0.1050441 -3.10267e-4 -0.994468 0.1050401 -3.12491e-4 -0.9944657 0.1048706 0.006335318 -0.9944646 0.1050726 -2.75258e-4 -0.994471 0.1050115 -3.37141e-4 -0.994446 0.1052477 -1.42052e-4 -0.9944626 0.1050907 -3.00796e-4 -0.9944677 0.1050426 -3.1221e-4 -0.002386629 -0.03177928 -0.9994921 -0.003654718 0.008237004 -0.9999594 -0.005654394 0.1433199 -0.9896603 -0.005748867 0.1282165 -0.9917296 -0.005858123 0.1564741 -0.9876647 -0.005067944 0.06736129 -0.9977158 -0.004456877 0.03895783 -0.9992309 -0.005485236 0.09268623 -0.9956803 -0.005720853 0.1144551 -0.9934119 -0.003099501 -0.01863968 -0.9998215 -0.003864526 0.01327824 -0.9999044 -0.003276109 -0.00766772 -0.9999651 -0.004657149 0.04427582 -0.9990085 -0.004166901 0.02382856 -0.9997074 -0.005265176 0.07321643 -0.9973022 -0.004875779 0.05351257 -0.9985553 -0.005681812 0.09931528 -0.9950398 -0.005390703 0.08045864 -0.9967434 -0.005914986 0.1220496 -0.9925063 -0.005717039 0.1040403 -0.9945567 -0.00602734 0.1521505 -0.988339 -0.00614947 0.1411506 -0.9899691 -0.005713641 0.1433284 -0.9896587 -0.005838572 0.156481 -0.9876638 0.1834012 -0.5596883 -0.8081541 -0.128902 -0.2371661 -0.9628793 -0.04002559 0.01964783 -0.9990054 -0.004830539 0.0319702 -0.9994772 -0.2259706 -0.4693492 -0.8536092 0.02433693 -0.1884551 -0.9817802 0.09893202 -0.3858391 -0.9172463 0.0989297 -0.3855527 -0.9173669 -0.3317707 -0.6526718 -0.681137 0.1833996 -0.5595163 -0.8082736</float_array>
          <technique_common>
            <accessor source="#U60_RIght_Ailerone-mesh-normals-array" count="186" stride="3">
              <param name="X" type="float"/>
              <param name="Y" type="float"/>
              <param name="Z" type="float"/>
            </accessor>
          </technique_common>
        </source>
        <vertices id="U60_RIght_Ailerone-mesh-vertices">
          <input semantic="POSITION" source="#U60_RIght_Ailerone-mesh-positions"/>
        </vertices>
        <triangles count="186">
          <input semantic="VERTEX" source="#U60_RIght_Ailerone-mesh-vertices" offset="0"/>
          <input semantic="NORMAL" source="#U60_RIght_Ailerone-mesh-normals" offset="1"/>
          <p>0 0 1 0 2 0 0 1 3 1 1 1 4 2 5 2 6 2 7 3 8 3 9 3 8 4 7 4 4 4 6 5 3 5 0 5 5 6 4 6 7 6 3 7 6 7 5 7 10 8 11 8 12 8 13 9 2 9 14 9 15 10 14 10 16 10 17 11 18 11 19 11 20 12 17 12 11 12 20 13 11 13 10 13 17 14 20 14 18 14 21 15 17 15 22 15 17 16 21 16 11 16 23 17 22 17 24 17 22 18 23 18 21 18 23 19 25 19 26 19 25 20 23 20 24 20 27 21 25 21 28 21 25 22 27 22 26 22 29 23 28 23 30 23 31 24 16 24 32 24 28 25 29 25 27 25 29 26 16 26 14 26 15 27 16 27 31 27 14 28 15 28 13 28 16 29 29 29 30 29 8 30 31 30 33 30 33 31 31 31 34 31 8 32 2 32 13 32 31 33 8 33 13 33 35 34 36 34 37 34 36 35 35 35 38 35 32 36 39 36 40 36 41 37 37 37 42 37 40 38 43 38 33 38 32 39 44 39 45 39 46 40 44 40 32 40 44 41 46 41 47 41 48 42 32 42 45 42 49 43 32 43 48 43 39 44 32 44 49 44 40 45 33 45 32 45 43 46 40 46 50 46 35 47 50 47 51 47 35 48 51 48 52 48 38 49 35 49 52 49 37 50 36 50 53 50 37 51 53 51 54 51 42 52 55 52 41 52 42 53 37 53 56 53 54 54 56 54 37 54 43 55 50 55 35 55 57 56 58 56 59 56 60 57 61 57 62 57 63 58 64 58 59 58 62 59 65 59 63 59 66 60 67 60 60 60 63 61 60 61 62 61 66 62 60 62 68 62 69 63 60 63 63 63 69 64 59 64 58 64 59 65 69 65 63 65 69 66 70 66 68 66 64 67 63 67 65 67 64 68 71 68 72 68 58 69 57 69 73 69 65 70 74 70 64 70 64 71 72 71 59 71 74 72 65 72 75 72 76 73 77 73 74 73 60 74 78 74 79 74 62 75 61 75 80 75 74 76 81 76 64 76 70 77 82 77 83 77 70 78 84 78 82 78 85 79 66 79 86 79 67 80 66 80 85 80 87 81 60 81 67 81 78 82 60 82 87 82 61 83 60 83 79 83 62 84 88 84 89 84 62 85 80 85 90 85 88 86 62 86 90 86 62 87 89 87 91 87 92 88 62 88 91 88 92 89 65 89 62 89 74 90 75 90 76 90 77 91 93 91 94 91 94 92 74 92 77 92 95 93 74 93 94 93 81 94 74 94 95 94 96 95 64 95 81 95 71 96 64 96 96 96 97 97 59 97 72 97 98 98 59 98 97 98 99 99 59 99 98 99 57 100 59 100 99 100 100 101 58 101 73 101 101 102 58 102 100 102 84 103 58 103 101 103 84 104 70 104 58 104 70 105 69 105 58 105 68 106 60 106 69 106 102 107 65 107 92 107 102 108 75 108 65 108 103 109 75 109 102 109 104 110 75 110 103 110 104 111 76 111 75 111 76 112 104 112 41 112 105 113 23 113 26 113 29 114 106 114 27 114 107 115 108 115 109 115 110 116 111 116 112 116 108 117 107 117 113 117 23 118 113 118 107 118 26 119 114 119 105 119 27 120 114 120 26 120 14 121 115 121 29 121 2 122 115 122 14 122 115 123 2 123 1 123 116 124 29 124 115 124 106 125 29 125 116 125 114 126 27 126 106 126 113 127 23 127 105 127 111 128 110 128 109 128 109 129 108 129 111 129 117 130 41 130 55 130 41 131 117 131 93 131 118 132 93 132 119 132 120 133 118 133 121 133 112 134 1 134 122 134 1 135 112 135 113 135 122 136 9 136 83 136 118 137 120 137 122 137 117 138 119 138 93 138 118 139 119 139 123 139 118 140 123 140 124 140 118 141 124 141 125 141 118 142 125 142 121 142 122 143 120 143 126 143 127 144 122 144 126 144 112 145 122 145 127 145 113 146 112 146 111 146 1 147 113 147 105 147 1 148 105 148 128 148 128 149 129 149 1 149 129 150 128 150 116 150 9 151 122 151 1 151 130 152 55 152 131 152 132 153 133 153 134 153 19 154 135 154 39 154 136 155 137 155 135 155 112 156 136 156 12 156 138 157 139 157 140 157 141 158 142 158 143 158 144 159 145 159 146 159 147 160 148 160 137 160 55 161 130 161 117 161 130 162 133 162 132 162 133 163 130 163 131 163 132 164 142 164 141 164 142 165 132 165 134 165 141 166 139 166 138 166 139 167 141 167 143 167 138 168 145 168 144 168 145 169 138 169 140 169 144 170 148 170 147 170 148 171 144 171 146 171 10 172 136 172 135 172 137 173 136 173 147 173 10 174 135 174 19 174 136 175 10 175 12 175 149 176 150 176 151 176 152 177 153 177 154 177 19 178 155 178 152 178 155 179 19 179 39 179 150 180 149 180 154 180 153 181 152 181 155 181 154 182 153 182 156 182 154 183 156 183 150 183 157 184 149 184 158 184 149 185 151 185 158 185</p>
        </triangles>
      </mesh>
    </geometry>
  </library_geometries>
  <library_visual_scenes>
    <visual_scene id="Scene" name="Scene">
      <node id="U60_RIght_Ailerone" name="U60_RIght_Ailerone" type="NODE">
        <matrix sid="transform">1 0 0 1.49012e-8 0 1 0 4.84288e-8 0 0 1 -1.00234e-7 0 0 0 1</matrix>
        <instance_geometry url="#U60_RIght_Ailerone-mesh" name="U60_RIght_Ailerone"/>
      </node>
    </visual_scene>
  </library_visual_scenes>
  <scene>
    <instance_visual_scene url="#Scene"/>
  </scene>
</COLLADA>