<?xml version="1.0" encoding="utf-8"?>
<COLLADA xmlns="http://www.collada.org/2005/11/COLLADASchema" version="1.4.1" xmlns:xsi="http://www.w3.org/2001/XMLSchema-instance">
  <asset>
    <contributor>
      <author>Blender User</author>
      <authoring_tool>Blender 4.5.6 LTS commit date:2026-01-19, commit time:19:36, hash:a78963ed6435</authoring_tool>
    </contributor>
    <created>2026-01-23T11:46:50</created>
    <modified>2026-01-23T11:46:50</modified>
    <unit name="meter" meter="1"/>
    <up_axis>Z_UP</up_axis>
  </asset>
  <library_effects/>
  <library_images/>
  <library_geometries>
    <geometry id="U60_Right_Flap-mesh" name="U60_Right_Flap">
      <mesh>
        <source id="U60_Right_Flap-mesh-positions">
          <float_array id="U60_Right_Flap-mesh-positions-array" count="549">0.291069 0.01246976 -0.02222025 0.2962857 0.01214355 -0.02182871 0.2910715 0.01208192 -0.02168148 0.2910659 0.01348382 -0.02307009 0.2963778 0.01294338 -0.02270406 0.2910671 0.01294147 -0.02268731 0.2910656 0.01471924 -0.02354323 0.2964947 0.01395785 -0.02334576 0.2910653 0.01408195 -0.02335804 0.2962438 0.01177817 -0.02111732 0.2910745 0.01178866 -0.02108597 0.296343 0.01264172 -0.02245187 0.2964137 0.01325571 -0.02296525 0.2966102 0.01495987 -0.02361947 0.2910664 0.01537865 -0.02362036 0.291068 0.01604175 -0.02358734 0.2966573 0.0153675 -0.02362197 0.29673 0.01599788 -0.02362585 0.2967337 0.01602983 -0.02362179 0.2910662 0.01537865 -0.02362042 0.05221444 0.0165289 -0.02213704 0.2910678 0.01604151 -0.02358734 0.05222123 0.01226413 -0.01964133 0.2910714 0.01208192 -0.02168148 -0.0672391 0.01677054 -0.02141082 -0.3205017 0.01676249 -0.01990896 -0.1867781 0.0170105 -0.02068334 -0.3204424 0.0172764 -0.01986902 0.2910655 0.01471924 -0.02354323 -0.3205941 0.01596176 -0.01983851 0.2910653 0.01408183 -0.02335804 -0.320683 0.01519066 -0.01960909 0.2910658 0.0134837 -0.02307009 -0.3207647 0.0144819 -0.01923084 0.2910671 0.01294147 -0.02268731 -0.320801 0.01416641 -0.01896971 0.2910689 0.01246976 -0.02222025 -0.3208361 0.01386171 -0.0187177 -0.3208941 0.01335805 -0.01809293 -0.06723231 0.01249903 -0.01891791 -0.1867713 0.01273137 -0.01819312 -0.3209365 0.01298856 -0.01737844 0.2953549 0.004023373 -0.001377165 0.2909789 0.00408709 -0.001491725 0.2954808 0.005121469 -0.004172563 0.2952274 0.00291115 0.001453697 0.2909645 0.002933919 0.001441955 0.2910201 0.007408201 -0.00994116 0.2909928 0.005210936 -0.004351079 0.2957295 0.007290959 -0.009695112 -0.1631488 0.04687482 -0.006656885 -0.3183864 0.03504842 -0.004743993 -0.1657062 0.02470695 -0.002733767 0.1435146 0.02569347 -0.00248152 0.2993978 0.03906112 -0.004748642 0.1463678 0.05042642 -0.007004559 -0.008390426 0.04865062 -0.006830692 -0.005378723 0.07475727 -0.01143956 -0.0110957 0.02520018 -0.002607643 0.3033973 0.07373046 -0.01110821 0.3042655 0.08125662 -0.01246231 -0.01730692 0.004570245 0.001104235 -0.1679363 0.005375325 6.91928e-4 -0.3158713 0.05685019 -0.008494019 -0.3165255 0.05117958 -0.007526695 0.2979394 0.02641826 -0.002398788 0.2986595 0.03266018 -0.003559768 0.3001555 0.04562896 -0.005965352 -0.3189753 0.02994382 -0.003856718 -0.3145074 0.06867259 -0.01048725 -0.3206574 0.0153625 -0.001317858 0.295881 0.008574843 9.1588e-4 0.1409801 0.003723502 0.001539885 0.2952261 0.002898156 0.001964509 0.2965509 0.01438254 -1.60896e-4 0.2972368 0.02032816 -0.001265823 0.3009333 0.05237138 -0.007209777 0.3017322 0.05929678 -0.00848186 0.3025532 0.06641358 -0.00978136 -0.3151988 0.06267905 -0.009480953 -0.3171622 0.04566019 -0.00657916 -0.3177823 0.04028522 -0.005651473 -0.3195497 0.02496486 -0.002989828 -0.3201102 0.02010631 -0.002143502 -0.3211922 0.0107277 -5.13037e-4 -0.3217148 0.006197154 2.70988e-4 0.3051589 0.08900117 -0.01384335 0.3060787 0.09697395 -0.01525121 -0.002000689 0.1040385 -0.01642262 0.3070259 0.1051849 -0.01668572 0.3080018 0.1136442 -0.01814663 -0.3137961 0.07483875 -0.01151263 -0.3130639 0.08118474 -0.01255691 -0.3123102 0.0877183 -0.01361984 -0.3115338 0.09444761 -0.01470112 0.302242 0.06371569 -0.009289622 0.2995157 0.04012542 -0.02072614 0.3008917 0.05204463 -0.01958781 0.2981296 0.02812021 -0.02208423 0.2962438 0.01177817 -0.02111726 0.2967337 0.01602983 -0.02362173 0.3022578 0.06387805 -0.01870954 0.3073374 0.1078878 -0.01831549 0.3080031 0.1136569 -0.01864653 0.2964791 0.01382261 -0.02328586 0.2966848 0.0156061 -0.02365523 0.2962995 0.01226323 -0.02200227 0.2963786 0.01295089 -0.0227369 0.2965921 0.01480323 -0.02359497 0.3060033 0.09632784 -0.01792871 0.3051047 0.08853089 -0.01375919 0.3053343 0.0905317 -0.01787209 0.3031778 0.07184833 -0.01828241 0.3040938 0.07978373 -0.01800221 0.3066709 0.1021124 -0.01807636 -0.3115325 0.0944603 -0.01520097 -0.3124337 0.08664804 -0.01344656 -0.3134579 0.07777744 -0.01475602 -0.3149389 0.06493228 -0.009859502 -0.3155273 0.05984902 -0.01531314 -0.3149042 0.06524753 -0.01503986 -0.3161534 0.05442547 -0.01567107 -0.317395 0.04364204 -0.006231367 -0.3209365 0.01298868 -0.01737838 -0.3205017 0.01676249 -0.01990902 -0.3205941 0.01596176 -0.01983845 -0.3195168 0.02529281 -0.01876127 -0.3217148 0.006197154 2.71019e-4 -0.3217135 0.006210148 -2.38672e-4 -0.3121732 0.08890897 -0.01494586 -0.3128148 0.08334952 -0.01479786 -0.3142837 0.07062309 -0.01485562 -0.3141031 0.07218748 -0.01481932 -0.317687 0.04114139 -0.01686358 -0.3167827 0.04897475 -0.01610922 -0.3185983 0.0332477 -0.01775354 -0.3206831 0.01519054 -0.01960945 -0.3207647 0.0144819 -0.01923102 -0.320894 0.01335841 -0.01809281 -0.3208361 0.01386159 -0.01871794 -0.006910264 0.06150263 -0.01703697 0.3025576 0.06647539 -0.0185551 0.3018553 0.06039202 -0.01893967 -0.3147466 0.066612 -0.01498425 -0.005042552 0.07768321 -0.01637685 -0.005660355 0.07233095 -0.01651757 -0.003818273 0.08829033 -0.0163424 0.3053096 0.09031766 -0.01787155 -0.004428744 0.08300119 -0.01631802 -0.3125962 0.08524358 -0.01483541 -0.002604424 0.09880822 -0.01664447 -0.003210484 0.093557 -0.01645106 0.3073324 0.1078444 -0.01831293 -0.001999378 0.1040512 -0.01692241 -0.3120715 0.08978998 -0.01501578 0.3059865 0.0961827 -0.01792567 -0.3136658 0.07597589 -0.01476466 0.304629 0.08442056 -0.01790928 0.3039439 0.07848483 -0.01803719 -0.3131299 0.08061921 -0.01476335 -0.3142045 0.07130855 -0.01483875 0.3032536 0.07250493 -0.01825332 -0.3152927 0.06188201 -0.01519972 -0.006282746 0.06693899 -0.01673841 -0.315843 0.05711418 -0.01548314 -0.3169584 0.04745209 -0.01624482 -0.007543444 0.05601799 -0.01741057 -0.008182585 0.0504812 -0.01785624 -0.3175241 0.04255187 -0.01671755 -0.009480416 0.03923982 -0.01894986 -0.3180956 0.03760218 -0.01724755 0.3066605 0.1020223 -0.01807266 -0.01208782 0.01665639 -0.02174502 -0.0108059 0.02775925 -0.02028715 -0.3192565 0.02754724 -0.01846545 0.3011464 0.05425071 -0.01940351 0.3004303 0.04804807 -0.01994299 0.2997068 0.04178112 -0.02055406 0.2989756 0.03544747 -0.0212323 0.2982364 0.02904516 -0.02197295 0.2974892 0.02257287 -0.02277117 -0.3163982 0.05230528 -0.01583236 0.05222123 0.01226413 -0.01964139</float_array>
          <technique_common>
            <accessor source="#U60_Right_Flap-mesh-positions-array" count="183" stride="3">
              <param name="X" type="float"/>
              <param name="Y" type="float"/>
              <param name="Z" type="float"/>
            </accessor>
          </technique_common>
        </source>
        <source id="U60_Right_Flap-mesh-normals">
          <float_array id="U60_Right_Flap-mesh-normals-array" count="621">-0.006896495 -0.8115566 -0.5842331 -0.002372801 -0.5766556 -0.8169839 -0.004201948 -0.2790167 -0.9602771 -0.004502892 -0.8971384 -0.4417267 -0.001963734 -0.7810137 -0.6245108 -0.008267819 -0.70359 -0.710558 -8.36428e-4 -0.433774 -0.9010213 -0.001840293 -0.2633262 -0.9647051 -0.008616685 -0.1161958 -0.9931889 -1.83013e-4 0.04978609 -0.9987599 -0.005758285 0.1277508 -0.9917895 -0.006844818 -0.005376636 -0.9999622 -2.94549e-4 -0.006042957 -0.9999817 -0.008880496 -0.4756558 -0.8795866 -0.0122711 -0.6406115 -0.7677672 -0.002192378 -0.6412448 -0.7673333 -0.002384245 -0.8894563 -0.4570139 -0.005962669 0.0498113 -0.9987408 -0.004457473 -0.8971364 -0.4417311 -0.005920886 0.06037366 -0.9981583 -0.005915045 0.07611799 -0.9970813 -0.005978286 0.0467596 -0.9988883 -0.005917906 0.0781719 -0.9969223 -0.006210327 -0.08692771 -0.9961953 -0.006290495 -0.1162471 -0.9932004 -0.006390571 -0.2845175 -0.9586495 -0.006382882 -0.2789567 -0.9602825 -0.006304979 -0.4702696 -0.8825004 -0.00630778 -0.4337717 -0.9010008 -0.005958139 -0.6372032 -0.7706728 -0.006067097 -0.5767379 -0.8169067 -0.00586152 -0.6369165 -0.7709106 -0.004466354 -0.8966009 -0.4428173 -0.00572592 -0.7035977 -0.7105754 -0.005304992 -0.7782624 -0.6279169 -0.004490435 -0.8921146 -0.4517868 -0.004497885 -0.8896208 -0.4566778 -0.004493117 -0.8881463 -0.4595388 -0.005190312 -0.8115613 -0.5842443 -0.00397408 -0.9306925 -0.3657807 -0.00396949 -0.9306721 -0.3658329 -0.004110991 -0.9306756 -0.3658224 -0.003997623 -0.930679 -0.3658151 -0.003998816 -0.9306885 -0.3657908 -0.00397253 -0.9306735 -0.3658291 -0.004058599 -0.9306841 -0.3658013 -0.004056453 -0.9306709 -0.365835 -0.001152038 0.1743952 0.9846751 -0.001131296 0.1800183 0.9836626 -8.90048e-4 0.1739505 0.984754 -8.89655e-4 0.1739505 0.9847539 -9.60287e-4 0.1799992 0.9836663 -0.001368522 0.1773874 0.9841402 -0.001359701 0.1744185 0.9846707 -9.29602e-4 0.1773385 0.9841495 -5.68431e-4 0.1771368 0.9841861 -0.001761615 0.1746861 0.9846226 -8.68034e-4 0.1682528 0.9857435 -0.001385748 0.1830124 0.9831096 -9.58765e-4 0.18226 0.98325 -0.001361846 0.1713993 0.9852007 -3.27797e-4 0.1708619 0.9852949 -0.001535773 0.1746609 0.9846275 -0.001369059 0.1774841 0.9841227 -0.001733839 0.1818526 0.9833242 -0.001754343 0.1824933 0.9832056 -0.001392602 0.1828684 0.9831364 -0.001385927 0.1830523 0.9831022 -0.001374363 0.1827669 0.9831554 -9.69013e-4 0.1807673 0.9835254 -9.79832e-4 0.1816107 0.98337 -9.08073e-4 0.1797315 0.9837153 -7.79935e-4 0.1785181 0.9839363 -4.55213e-4 0.176575 0.9842872 -0.001093268 0.165701 0.9861755 -9.49362e-4 0.1670454 0.9859488 -8.3753e-4 0.1693032 0.9855636 -8.44417e-4 0.1701669 0.9854149 -8.7428e-4 0.1708497 0.9852967 -0.001351773 0.1716839 0.9851511 -0.001351654 0.1717565 0.9851385 -0.001347482 0.1716197 0.9851623 -0.001763999 0.1712897 0.9852191 -0.001784741 0.170718 0.9853183 -0.001377105 0.1802074 0.9836277 -0.001594841 0.1802317 0.9836229 -0.001758635 0.1775977 0.9841016 -4.34196e-4 0.175601 0.9844613 -3.55591e-4 0.1739372 0.9847567 9.84941e-5 0.1677553 0.9858286 2.0044e-4 0.1720774 0.9850834 2.07854e-4 0.1701554 0.9854173 -1.90366e-4 0.1640605 0.9864503 -1.90872e-4 0.1623935 0.9867261 -7.51876e-5 0.1677747 0.9858254 4.72529e-4 0.1605238 0.9870319 5.77379e-4 0.1585841 0.9873453 0.9934053 -0.1146554 -3.13326e-4 0.9934052 -0.1146557 -3.26584e-4 0.993405 -0.1146583 -3.10005e-4 0.9934059 -0.1146498 -3.09363e-4 0.9934054 -0.1146546 -3.08743e-4 0.9934028 -0.1146773 -3.44102e-4 0.9933972 -0.1147247 -3.89455e-4 0.9934101 -0.1146134 -2.52291e-4 0.9933975 -0.1147224 -5.65277e-4 0.9934146 -0.1145753 -1.88228e-4 0.9934051 -0.1146571 -3.12527e-4 0.993399 -0.1147098 -3.68599e-4 0.9934055 -0.1146532 -3.04771e-4 0.9934058 -0.1146509 -3.09861e-4 0.9934048 -0.1146598 -3.18075e-4 0.9934051 -0.1146572 -3.06735e-4 0.9934043 -0.1146636 -3.24377e-4 0.9934053 -0.1146554 -2.98649e-4 0.9934058 -0.1146507 -2.78067e-4 0.9934053 -0.1146556 -3.10131e-4 0.9934052 -0.1146563 -3.11365e-4 -0.03081971 0.9992032 0.0253604 -0.03081995 0.999204 0.02532887 -0.9934051 0.1146571 3.17633e-4 -0.9934053 0.1146556 3.13631e-4 -0.9934051 0.1146566 3.13128e-4 -0.9934062 0.1146477 3.02557e-4 -0.9934051 0.1146568 3.10129e-4 -0.9934126 0.1145917 2.43938e-4 -0.9934043 0.114664 3.2945e-4 -0.9934046 0.1146611 2.89685e-4 -0.9934042 0.1146647 3.13149e-4 -0.9934056 0.1146523 3.11569e-4 -0.9934028 0.1146767 3.38424e-4 -0.9934059 0.11465 2.98864e-4 -0.9934053 0.1146552 3.13608e-4 -0.9934055 0.1146537 3.11244e-4 -0.9934051 0.1146571 3.12175e-4 -0.9934052 0.1146561 3.12584e-4 -0.9934052 0.1146568 3.10491e-4 -0.9934052 0.1146562 3.11039e-4 -0.9934051 0.114657 3.25492e-4 -0.9934094 0.1146193 2.59506e-4 -0.993395 0.1147447 4.21478e-4 -0.9934046 0.114661 3.37735e-4 -0.9934086 0.1146267 3.09697e-4 -0.9934177 0.1145468 2.29901e-4 -0.9934053 0.1146553 3.10331e-4 -0.005920231 0.06376469 -0.9979474 -0.005457103 0.02691733 -0.9996228 -0.004919946 -0.004047155 -0.9999797 -0.004242897 -0.03631132 -0.9993315 -0.003790616 -0.05685871 -0.998375 -0.00372523 -0.05251467 -0.9986132 -0.004889488 -0.008662998 -0.9999505 -0.004931032 -0.004045844 -0.9999797 -0.005201816 0.0116654 -0.9999185 -0.005441248 0.02691555 -0.999623 -0.004605591 -0.02009689 -0.9997874 -0.005215227 0.01166695 -0.9999184 -0.005635559 0.03676903 -0.9993079 -0.005655348 0.04156821 -0.9991196 -0.005810201 0.0555014 -0.9984417 -0.005995333 0.08091539 -0.996703 -0.005637228 0.04156613 -0.9991199 -0.006052672 0.1071557 -0.9942238 -0.004237473 -0.03631198 -0.9993315 -0.003845095 -0.05250084 -0.9986134 -0.005759537 0.1308386 -0.9913869 -0.005945682 0.1163752 -0.9931876 -0.005764782 0.1360495 -0.9906852 -0.004597365 -0.02009785 -0.9997875 -0.004190564 -0.04075336 -0.9991605 -0.004558384 -0.02463376 -0.9996861 -0.005180597 0.006991863 -0.9999622 -0.005429565 0.02217429 -0.9997394 -0.005789816 0.05549907 -0.998442 -0.005798637 0.05065631 -0.9986993 -0.005900681 0.06864333 -0.9976239 -0.00597155 0.0809127 -0.9967033 -0.005966782 0.09772771 -0.9951953 -0.00589925 0.1155914 -0.9932793 0.001873612 0.1221876 -0.9925053 -0.005751848 0.1295658 -0.9915541 -0.005759775 0.1308386 -0.991387 -0.006002128 0.07600617 -0.9970893 -0.005960583 0.09750807 -0.9952169 -0.006047129 0.08733987 -0.9961602 -0.005937099 0.1264256 -0.9919583 -0.005918323 0.1163721 -0.993188 -0.006039261 0.1071594 -0.9942235 -0.00434494 -0.03912198 -0.999225 -0.004117667 -0.03915882 -0.9992245 -0.004817545 -0.01503026 -0.9998755 -0.005126774 8.7833e-4 -0.9999864 -0.005396842 0.01648718 -0.9998495 -0.005624413 0.03161561 -0.9994843 -0.005809843 0.04617226 -0.9989166 -0.005952715 0.0600267 -0.998179 -0.006117343 0.08537238 -0.9963303 -0.005922913 0.06864589 -0.9976235 -0.006054878 0.07312828 -0.9973042 -0.006163358 0.09753113 -0.9952135 -0.006143152 0.09673231 -0.9952914 -0.005944669 0.1338507 -0.9909837 -0.006117105 0.1209401 -0.9926409 -0.00401771 -0.9298464 -0.3679261 -0.003968536 -0.9303084 -0.3667569 -0.004065096 -0.9306744 -0.365826 -0.004048526 -0.9297662 -0.3681284</float_array>
          <technique_common>
            <accessor source="#U60_Right_Flap-mesh-normals-array" count="207" stride="3">
              <param name="X" type="float"/>
              <param name="Y" type="float"/>
              <param name="Z" type="float"/>
            </accessor>
          </technique_common>
        </source>
        <vertices id="U60_Right_Flap-mesh-vertices">
          <input semantic="POSITION" source="#U60_Right_Flap-mesh-positions"/>
        </vertices>
        <triangles count="207">
          <input semantic="VERTEX" source="#U60_Right_Flap-mesh-vertices" offset="0"/>
          <input semantic="NORMAL" source="#U60_Right_Flap-mesh-normals" offset="1"/>
          <p>0 0 1 0 2 0 3 1 4 1 5 1 6 2 7 2 8 2 2 3 9 3 10 3 1 4 0 4 11 4 5 5 11 5 0 5 8 6 12 6 3 6 7 7 6 7 13 7 14 8 13 8 6 8 15 9 16 9 14 9 17 10 15 10 18 10 16 11 15 11 17 11 13 12 14 12 16 12 12 13 8 13 7 13 4 14 3 14 12 14 11 15 5 15 4 15 9 16 2 16 1 16 19 17 20 17 21 17 22 18 23 18 10 18 24 19 19 19 25 19 25 20 26 20 24 20 19 21 24 21 20 21 26 22 25 22 27 22 25 23 28 23 29 23 28 24 25 24 19 24 29 25 30 25 31 25 30 26 29 26 28 26 31 27 32 27 33 27 32 28 31 28 30 28 33 29 34 29 35 29 34 30 33 30 32 30 35 31 36 31 37 31 22 32 38 32 23 32 36 33 35 33 34 33 37 34 23 34 38 34 39 35 38 35 22 35 40 36 38 36 39 36 38 37 40 37 41 37 23 38 37 38 36 38 42 39 43 39 44 39 43 40 45 40 46 40 9 41 47 41 10 41 48 42 44 42 43 42 44 43 48 43 49 43 45 44 43 44 42 44 47 45 9 45 49 45 49 46 48 46 47 46 50 47 51 47 52 47 53 48 54 48 55 48 50 49 56 49 57 49 55 50 57 50 56 50 56 51 53 51 55 51 58 52 53 52 56 52 58 53 50 53 52 53 50 54 58 54 56 54 55 55 59 55 60 55 61 56 52 56 62 56 50 57 63 57 64 57 53 58 65 58 66 58 55 59 54 59 67 59 52 60 51 60 68 60 57 61 69 61 50 61 52 62 70 62 62 62 52 63 61 63 58 63 71 64 72 64 73 64 74 65 72 65 71 65 53 66 74 66 75 66 65 67 53 67 75 67 54 68 53 68 66 68 55 69 76 69 77 69 76 70 55 70 67 70 78 71 55 71 77 71 59 72 55 72 78 72 60 73 57 73 55 73 79 74 50 74 69 74 63 75 50 75 79 75 80 76 50 76 64 76 81 77 50 77 80 77 51 78 50 78 81 78 82 79 52 79 68 79 83 80 52 80 82 80 70 81 52 81 83 81 84 82 62 82 70 82 85 83 62 83 84 83 58 84 72 84 53 84 72 85 74 85 53 85 72 86 58 86 61 86 86 87 57 87 60 87 87 88 57 88 86 88 87 89 88 89 57 89 89 90 88 90 87 90 88 91 89 91 90 91 57 92 91 92 69 92 57 93 92 93 91 93 88 94 92 94 57 94 88 95 93 95 92 95 93 96 88 96 94 96 95 97 96 97 97 97 98 98 99 98 100 98 95 99 97 99 101 99 90 100 102 100 103 100 99 101 98 101 45 101 104 102 105 102 99 102 104 103 99 103 106 103 104 104 106 104 107 104 105 105 104 105 108 105 100 106 99 106 105 106 73 107 98 107 96 107 98 108 73 108 45 108 109 109 110 109 111 109 112 110 95 110 101 110 113 111 95 111 112 111 110 112 113 112 111 112 114 113 110 113 109 113 102 114 110 114 114 114 102 115 90 115 110 115 95 116 113 116 110 116 73 117 96 117 95 117 94 118 103 118 115 118 103 119 94 119 90 119 116 120 117 120 118 120 119 121 118 121 120 121 118 122 121 122 122 122 123 123 124 123 125 123 122 124 126 124 127 124 126 125 128 125 127 125 94 126 129 126 116 126 117 127 116 127 130 127 129 128 94 128 115 128 116 129 129 129 130 129 131 130 118 130 132 130 118 131 117 131 132 131 118 132 131 132 120 132 133 133 122 133 134 133 121 134 118 134 119 134 122 135 121 135 134 135 122 136 133 136 135 136 126 137 122 137 135 137 27 138 123 138 126 138 124 139 123 139 27 139 123 140 125 140 136 140 123 141 136 141 137 141 137 142 138 142 123 142 138 143 137 143 139 143 128 144 126 144 123 144 140 145 141 145 142 145 143 146 144 146 145 146 146 147 147 147 148 147 149 148 150 148 151 148 152 149 153 149 103 149 154 150 153 150 150 150 146 151 155 151 147 151 156 152 146 152 148 152 148 153 157 153 144 153 144 154 158 154 145 154 159 155 151 155 146 155 160 156 148 156 144 156 161 157 145 157 158 157 162 158 145 158 163 158 164 159 163 159 140 159 165 160 166 160 167 160 145 161 161 161 163 161 168 162 169 162 170 162 150 163 171 163 151 163 153 164 152 164 150 164 21 165 172 165 173 165 174 166 169 166 173 166 26 167 27 167 174 167 151 168 155 168 146 168 171 169 150 169 152 169 155 170 151 170 171 170 157 171 148 171 147 171 158 172 144 172 157 172 163 173 141 173 140 173 141 174 163 174 161 174 142 175 166 175 140 175 166 176 175 176 167 176 169 177 176 177 177 177 173 178 178 178 179 178 21 179 179 179 180 179 21 180 180 180 18 180 26 181 173 181 172 181 175 182 166 182 142 182 167 183 176 183 169 183 176 184 167 184 175 184 173 185 179 185 21 185 169 186 178 186 173 186 178 187 169 187 177 187 153 188 154 188 115 188 150 189 149 189 154 189 151 190 159 190 149 190 146 191 156 191 159 191 148 192 160 192 156 192 144 193 143 193 160 193 145 194 162 194 143 194 163 195 164 195 162 195 181 196 166 196 165 196 181 197 140 197 166 197 140 198 181 198 164 198 168 199 167 199 169 199 167 200 168 200 165 200 174 201 173 201 26 201 169 202 174 202 170 202 123 203 40 203 128 203 128 204 182 204 46 204 46 205 182 205 10 205 182 206 128 206 40 206</p>
        </triangles>
      </mesh>
    </geometry>
  </library_geometries>
  <library_visual_scenes>
    <visual_scene id="Scene" name="Scene">
      <node id="U60_Right_Flap" name="U60_Right_Flap" type="NODE">
        <matrix sid="transform">1 0 0 1.49012e-8 0 1 0 4.84288e-8 0 0 1 -1.00234e-7 0 0 0 1</matrix>
        <instance_geometry url="#U60_Right_Flap-mesh" name="U60_Right_Flap"/>
      </node>
    </visual_scene>
  </library_visual_scenes>
  <scene>
    <instance_visual_scene url="#Scene"/>
  </scene>
</COLLADA>