<?xml version="1.0" encoding="utf-8"?>
<COLLADA xmlns="http://www.collada.org/2005/11/COLLADASchema" version="1.4.1" xmlns:xsi="http://www.w3.org/2001/XMLSchema-instance">
  <asset>
    <contributor>
      <author>Blender User</author>
      <authoring_tool>Blender 4.5.6 LTS commit date:2026-01-19, commit time:19:36, hash:a78963ed6435</authoring_tool>
    </contributor>
    <created>2026-01-23T11:44:17</created>
    <modified>2026-01-23T11:44:17</modified>
    <unit name="meter" meter="1"/>
    <up_axis>Z_UP</up_axis>
  </asset>
  <library_effects/>
  <library_images/>
  <library_geometries>
    <geometry id="U60_Left_Ailerone-mesh" name="U60_Left_Ailerone">
      <mesh>
        <source id="U60_Left_Ailerone-mesh-positions">
          <float_array id="U60_Left_Ailerone-mesh-positions-array" count="477">0.2536727 0.004144012 -0.01049685 0.2536649 0.005409955 -0.01364904 0.2578936 0.005375981 -0.01362901 0.2580824 0.003601968 -0.009213864 0.253688 0.001677095 -0.004354596 0.2536804 0.002908527 -0.007420957 0.2582313 0.002203106 -0.005732476 0.2583274 0.001299381 -0.003483414 0.2584254 3.78897e-4 -0.001192271 0.253696 3.99237e-4 -0.00117284 0.09667873 0.01100993 -0.01683729 0.2537115 0.009772896 -0.01610493 0.2537062 0.009099483 -0.01615828 0.09663277 0.006668031 -0.01438474 0.2536702 0.005713701 -0.01425236 0.004938304 0.007395446 -0.01481181 -0.2697429 0.009814083 -0.01661401 -0.2697479 0.0131939 -0.01858454 -0.2697429 0.01386004 -0.01854008 -0.08663225 0.01244062 -0.01769018 0.004965722 0.01172715 -0.0172643 0.2537006 0.008426904 -0.01609754 -0.2697533 0.01252961 -0.01851755 0.2536945 0.007774114 -0.01592445 -0.2697591 0.0118857 -0.01834106 0.2536883 0.00715965 -0.01564401 -0.2697652 0.01128017 -0.0180599 0.2536819 0.006601154 -0.01526421 -0.2697719 0.01067042 -0.01763236 0.2536758 0.006114542 -0.01479589 -0.2697785 0.01015043 -0.0170992 -0.08664119 0.008117854 -0.01523703 -0.269715 0.009552478 -0.01608389 -0.2689802 0.002645909 9.9107e-4 -0.2697151 0.009552717 -0.01608389 -0.2741323 0.05139851 -0.006555795 -0.2762088 0.07104748 -0.009701907 -0.2752504 0.06196409 -0.01334619 -0.2746938 0.05669403 -0.0136494 -0.2710315 0.02201187 -0.0173552 -0.2701712 0.01386338 -0.01854205 -0.2783201 0.09102684 -0.01279377 -0.2775536 0.08376997 -0.01303595 -0.2689782 0.00262922 0.001500666 -0.2699092 0.01138412 -0.01811718 -0.2698385 0.01071685 -0.01767075 -0.2697429 0.009814321 -0.01661401 -0.2697786 0.01015055 -0.0170992 -0.269988 0.0121296 -0.01842188 -0.2700715 0.01292014 -0.01857179 -0.2718852 0.03009724 -0.01627254 -0.2727324 0.03812038 -0.01531285 -0.2735732 0.04608201 -0.01449465 -0.2758048 0.06721305 -0.0131281 -0.2761319 0.07031047 -0.01304072 -0.278322 0.09104329 -0.0132935 -0.2767837 0.0764814 -0.01296168 0.2560356 0.02299457 -0.004078269 0.1230313 0.03357613 -0.005181849 0.1248817 0.01606631 -0.002480924 -0.1395571 0.0195232 -0.001882255 -0.1416384 0.03921759 -0.00507611 -0.2720325 0.03152954 -0.003292739 -0.00930339 0.03639686 -0.005128979 0.1209733 0.05305093 -0.008114874 -0.01148986 0.05708676 -0.008332192 -0.1377121 0.002065002 9.55187e-4 -0.2699485 0.01181006 -1.78831e-5 -0.007640182 0.00150597 4.14747e-4 -0.00733757 0.01779478 -0.002181589 0.1264813 9.29389e-4 -1.39265e-4 0.2542306 0.04007488 -0.006605029 0.2537484 0.04463762 -0.007267594 0.2564585 0.0189923 -0.003478646 0.1198541 0.06364136 -0.009662866 -0.01267886 0.06833809 -0.01002436 -0.01393938 0.08026599 -0.01177352 0.1186677 0.0748685 -0.01126176 -0.2714921 0.02641612 -0.002444624 -0.270965 0.02142888 -0.001616001 -0.2725869 0.03677529 -0.004159986 0.2527431 0.05415111 -0.008627712 0.2584273 3.62204e-4 -6.84281e-4 0.2580515 0.003917932 -0.001215338 0.2576672 0.007554769 -0.001760542 -0.2694579 0.007167458 7.51433e-4 -0.2689782 0.00262922 0.001500546 -0.2704507 0.01656204 -8.07074e-4 -0.2743404 0.05336809 -0.006875395 -0.2737401 0.04768794 -0.005951583 -0.2731558 0.04215919 -0.005046367 -0.2749574 0.0592066 -0.007817506 -0.2755919 0.06521016 -0.008777737 0.2516791 0.06421989 -0.01003235 0.2511236 0.06947726 -0.01075059 0.2522188 0.05911308 -0.00932461 0.2532528 0.0493279 -0.007941901 0.2546998 0.03563439 -0.005954563 0.2551568 0.03131079 -0.005316436 0.2556018 0.02709907 -0.004690945 0.2568711 0.01508784 -0.002892374 0.2572739 0.01127672 -0.002319574 -0.2762445 0.07138633 -0.00975579 -0.2769163 0.07774269 -0.0107513 -0.2776079 0.08428686 -0.0117641 0.2576572 0.00760746 -0.01585501 0.2577658 0.006581604 -0.0152291 0.2537004 0.008426904 -0.01609754 0.2537061 0.009099602 -0.01615822 0.2575028 0.009069144 -0.01610636 0.2537112 0.009772896 -0.01610493 0.2574315 0.00974363 -0.01608753 0.2574351 0.009710013 -0.01609289 0.2575478 0.00864309 -0.01611524 0.2577337 0.006885528 -0.01547765 0.2578541 0.005748271 -0.01433986 0.2578005 0.006253659 -0.01496088 0.2511216 0.06949365 -0.01125031 0.2541659 0.04068708 -0.006694197 0.2519375 0.06177103 -0.01111418 0.2553895 0.02908456 -0.01326805 0.2547218 0.03540754 -0.01254922 0.2575051 0.009088635 -0.001990795 0.252756 0.05402141 -0.01124203 0.2530223 0.05150049 -0.01133936 0.2538678 0.04349476 -0.01182067 0.2560635 0.02270066 -0.0141071 0.2567442 0.0162543 -0.0150519 0.2577336 0.006885647 -0.01547741 0.2578541 0.005748391 -0.01433962 0.2518779 0.06233489 -0.01111453 -0.2773477 0.08182018 -0.01299792 0.2526376 0.0551427 -0.0112071 -0.2763683 0.07254832 -0.01299732 -0.2768589 0.07719337 -0.01296085 -0.2712549 0.02412784 -0.01706176 0.2565946 0.01767063 -0.0148366 -0.2723161 0.03417778 -0.01576858 0.2541812 0.04052662 -0.01206123 -0.274376 0.05368435 -0.01385784 -0.2748795 0.05845183 -0.01353853 0.2534043 0.04788279 -0.01152527 -0.2753791 0.06318223 -0.01328748 -0.2758752 0.06787967 -0.01310658 0.2549707 0.03305065 -0.01280289 -0.2733559 0.04402416 -0.01469206 -0.2738682 0.04887622 -0.01424324 0.2557746 0.02543658 -0.0137344 -0.2728385 0.03912532 -0.01520156 -0.2697693 0.0109024 -0.01781523 -0.2698593 0.01091259 -0.01780188 -0.2699092 0.01138412 -0.01811712 -0.2697508 0.01282185 -0.01856082 -0.2697599 0.01181334 -0.01831364 -0.269988 0.0121296 -0.01842206 -0.2700715 0.01292014 -0.01857173 -0.2699555 0.01182222 -0.01829624 -0.2697785 0.01015043 -0.01709914 -0.2698385 0.01071661 -0.01767092</float_array>
          <technique_common>
            <accessor source="#U60_Left_Ailerone-mesh-positions-array" count="159" stride="3">
              <param name="X" type="float"/>
              <param name="Y" type="float"/>
              <param name="Z" type="float"/>
            </accessor>
          </technique_common>
        </source>
        <source id="U60_Left_Ailerone-mesh-normals">
          <float_array id="U60_Left_Ailerone-mesh-normals-array" count="558">-0.005695521 -0.9279477 -0.3726669 -0.005647897 -0.9279702 -0.3726115 -0.005571961 -0.9279521 -0.3726578 -0.005522727 -0.9279742 -0.3726034 -0.005559623 -0.9279484 -0.3726672 -0.00561887 -0.9279362 -0.3726968 -0.005565643 -0.9279594 -0.3726398 -0.00558567 -0.9279648 -0.3726263 0.005270361 0.07887935 -0.9968702 -0.005048751 -0.8931676 -0.4496958 -0.005146026 -0.9036044 -0.4283369 0.00514698 0.06656312 -0.9977689 0.005160808 0.06860876 -0.9976304 0.005237638 0.07611143 -0.9970856 0.005136013 0.0636664 -0.9979581 0.003813207 -0.1003635 -0.9949436 0.003912627 -0.08995962 -0.9959377 0.002376019 -0.2643485 -0.9644243 0.0024603 -0.256261 -0.9666045 9.30329e-4 -0.4151958 -0.9097316 8.79249e-4 -0.4211522 -0.9069896 -7.59106e-4 -0.5741319 -0.8187626 -6.10309e-4 -0.562348 -0.8269004 -0.002447068 -0.7158716 -0.6982277 -0.004982709 -0.8968829 -0.44224 -0.002130985 -0.6934335 -0.7205174 -0.003626286 -0.8047757 -0.5935681 -0.005114197 -0.9021955 -0.431297 -0.005095779 -0.8992124 -0.4374825 -0.00383085 -0.8219308 -0.5695746 -0.005536794 -0.9270844 -0.374812 -0.00553286 -0.9271002 -0.3747727 -0.00568825 -0.9279457 -0.3726718 -0.00560069 -0.9275949 -0.3735457 -0.9944673 -0.1050462 3.08578e-4 -0.9944673 -0.1050463 3.08425e-4 -0.9944673 -0.1050465 3.07344e-4 -0.9944672 -0.1050472 2.96521e-4 -0.9944694 -0.1050266 3.29169e-4 -0.9944665 -0.1050539 3.12977e-4 -0.9944767 -0.1049569 3.84934e-4 -0.9944756 -0.1049677 3.75589e-4 -0.9944704 -0.1050162 3.47316e-4 -0.99447 -0.1050207 3.42397e-4 -0.9944673 -0.1050472 3.06072e-4 -0.9944673 -0.1050463 3.08069e-4 -0.9944674 -0.1050456 3.09406e-4 -0.9944673 -0.1050462 3.13941e-4 -0.9944675 -0.1050447 3.11587e-4 -0.9944676 -0.1050433 3.10669e-4 -0.9944674 -0.105046 3.08164e-4 -0.9944679 -0.1050409 3.02323e-4 -0.9944673 -0.1050468 2.84507e-4 -0.9944673 -0.1050457 3.02142e-4 -0.9944674 -0.1050451 3.03273e-4 -0.9944674 -0.1050447 3.1074e-4 0.003961145 0.1528574 0.9882403 0.004036664 0.1604934 0.9870287 0.003577291 0.1492967 0.9887861 0.003663957 0.1533739 0.9881615 0.004594445 0.1608954 0.9869608 0.003814756 0.1604707 0.9870332 0.004792332 0.1609156 0.9869565 0.004287242 0.1569324 0.9876001 0.004235804 0.1528856 0.9882348 0.003738403 0.1568762 0.9876112 0.004755496 0.1573196 0.9875363 0.003050088 0.1533108 0.9881734 0.002808868 0.14399 0.9895752 0.004194438 0.1485903 0.9888899 0.002792358 0.1449199 0.9894395 0.003332078 0.1492714 0.9887906 0.002583026 0.148992 0.9888351 0.001926422 0.1411914 0.9899804 0.004381835 0.1643534 0.9863919 0.003852069 0.1635093 0.9865343 0.002640724 0.1449042 0.9894422 0.004721999 0.1482073 0.988945 0.004709422 0.1487328 0.9888662 0.004801154 0.1633638 0.9865542 0.004824876 0.1639719 0.9864532 0.004386186 0.1642813 0.9864038 0.004382789 0.1644217 0.9863804 0.004366457 0.1640632 0.9864402 0.003777325 0.1609185 0.9869605 0.003865242 0.1628444 0.9866442 0.003845632 0.1619663 0.9867888 0.003642737 0.1596822 0.9871618 0.003428518 0.1582843 0.9873876 0.003160893 0.156936 0.9876037 0.002452433 0.1453481 0.9893776 0.001692891 0.1355348 0.9907711 0.002154946 0.141215 0.9899766 0.002172708 0.1375014 0.9904992 0.002235531 0.1393182 0.9902451 0.002675056 0.1410523 0.9899985 0.002718389 0.1425825 0.9897792 0.003534853 0.1453061 0.9893804 0.00351727 0.146372 0.9892234 0.003532528 0.1472704 0.98909 0.003568708 0.148002 0.9889806 0.00418657 0.1489272 0.9888393 0.004187464 0.1490576 0.9888197 0.004184246 0.1489679 0.9888331 0.004468083 0.1533395 0.9881635 0.004241287 0.1533163 0.9881681 0.004292249 0.1573283 0.987537 0.003154754 0.1567377 0.9876352 0.002730786 0.1490072 0.9888324 0.002799391 0.1550207 0.9879072 0.002734482 0.1532177 0.9881886 0.002251625 0.1453273 0.9893811 0.002342104 0.1512641 0.9884906 -0.001514196 -0.4151751 -0.9097402 0.002869188 -0.6934649 -0.7204847 0.01289331 -0.09000629 -0.9958577 0.005876898 0.1591735 -0.9872332 -0.005750894 0.02032107 -0.9997769 0.009948372 -0.2563177 -0.9665414 0.005096018 -0.4627891 -0.8864538 -0.004097461 -0.5623163 -0.8269121 -0.005759716 -0.8047569 -0.5935764 -0.00201863 -0.8931877 -0.4496794 -0.004926562 -0.8859438 -0.4637663 9.0813e-4 -0.7755867 -0.6312404 -0.009568452 -0.6337209 -0.7735025 0.003622651 -0.6328244 -0.7742868 0.00678122 -0.2430315 -0.9699947 0.0045529 0.0788961 -0.9968725 0.01384711 0.02241671 -0.9996529 0.04052108 0.9986446 0.0326634 0.04052108 0.9986447 0.03266084 0.9944676 0.1050433 -3.19281e-4 0.9944675 0.1050433 -3.04995e-4 0.9944675 0.1050443 -3.10177e-4 0.9944654 0.1050642 -2.74521e-4 0.994467 0.1050487 -2.81904e-4 0.9944674 0.1050454 -3.08773e-4 0.9944676 0.1050444 -3.43893e-4 0.9944675 0.1050449 -3.11326e-4 0.9944673 0.1050465 -3.06615e-4 0.9944674 0.1050451 -3.09971e-4 0.9944671 0.1050474 -3.08701e-4 0.9944674 0.1050454 -3.08657e-4 0.9944676 0.105044 -3.10287e-4 0.9944675 0.1050443 -3.10178e-4 0.9944651 0.1050668 -3.80967e-4 0.9944685 0.1050344 -3.13987e-4 0.9944709 0.1050125 -3.36181e-4 0.994461 0.1051055 -2.59425e-4 0.9944505 0.1052055 -1.5829e-4 0.9944673 0.1050461 -3.10767e-4 0.002386927 -0.03177899 -0.9994921 0.003655016 0.008237183 -0.9999594 0.005662262 0.1433209 -0.9896601 0.005749106 0.1282169 -0.9917295 0.005859136 0.1564742 -0.9876646 0.005068242 0.06736165 -0.9977158 0.004457175 0.03895813 -0.9992309 0.005485415 0.09268641 -0.9956803 0.005721032 0.1144547 -0.993412 0.003099739 -0.01863932 -0.9998215 0.003864765 0.01327842 -0.9999043 0.003276348 -0.00766766 -0.9999651 0.004657387 0.04427605 -0.9990085 0.004167139 0.02382874 -0.9997074 0.005265414 0.07321667 -0.9973022 0.004876017 0.05351275 -0.9985552 0.005682051 0.09931546 -0.9950398 0.005390942 0.08045881 -0.9967434 0.005915224 0.1220496 -0.9925064 0.005717277 0.1040405 -0.9945566 0.006027579 0.1521504 -0.988339 0.006149649 0.141151 -0.989969 0.00571388 0.1433284 -0.9896587 0.005838751 0.1564815 -0.9876636 -0.1833103 -0.5596947 -0.8081703 0.1288928 -0.2371695 -0.9628797 0.0400232 0.01965141 -0.9990054 0.004839122 0.03197109 -0.999477 0.22591 -0.469349 -0.8536252 -0.0243386 -0.1884607 -0.9817791 -0.09896016 -0.3858324 -0.9172461 -0.09895795 -0.3855541 -0.9173632 0.3317645 -0.6526871 -0.6811255 -0.1833084 -0.5595118 -0.8082973</float_array>
          <technique_common>
            <accessor source="#U60_Left_Ailerone-mesh-normals-array" count="186" stride="3">
              <param name="X" type="float"/>
              <param name="Y" type="float"/>
              <param name="Z" type="float"/>
            </accessor>
          </technique_common>
        </source>
        <vertices id="U60_Left_Ailerone-mesh-vertices">
          <input semantic="POSITION" source="#U60_Left_Ailerone-mesh-positions"/>
        </vertices>
        <triangles count="186">
          <input semantic="VERTEX" source="#U60_Left_Ailerone-mesh-vertices" offset="0"/>
          <input semantic="NORMAL" source="#U60_Left_Ailerone-mesh-normals" offset="1"/>
          <p>0 0 1 0 2 0 0 1 2 1 3 1 4 2 5 2 6 2 7 3 8 3 9 3 9 4 4 4 7 4 5 5 0 5 3 5 6 6 7 6 4 6 3 7 6 7 5 7 10 8 11 8 12 8 13 9 14 9 1 9 15 10 16 10 14 10 17 11 18 11 19 11 20 12 12 12 17 12 20 13 10 13 12 13 17 14 19 14 20 14 21 15 22 15 17 15 17 16 12 16 21 16 23 17 24 17 22 17 22 18 21 18 23 18 23 19 25 19 26 19 26 20 24 20 23 20 27 21 28 21 26 21 26 22 25 22 27 22 29 23 30 23 28 23 31 24 32 24 16 24 28 25 27 25 29 25 29 26 14 26 16 26 15 27 31 27 16 27 14 28 13 28 15 28 16 29 30 29 29 29 9 30 33 30 31 30 33 31 34 31 31 31 9 32 13 32 1 32 31 33 13 33 9 33 35 34 36 34 37 34 37 35 38 35 35 35 32 36 39 36 40 36 41 37 42 37 36 37 39 38 33 38 43 38 32 39 44 39 45 39 46 40 32 40 45 40 45 41 47 41 46 41 48 42 44 42 32 42 49 43 48 43 32 43 40 44 49 44 32 44 39 45 32 45 33 45 43 46 50 46 39 46 35 47 51 47 50 47 35 48 52 48 51 48 38 49 52 49 35 49 36 50 53 50 37 50 36 51 54 51 53 51 42 52 41 52 55 52 42 53 56 53 36 53 54 54 36 54 56 54 43 55 35 55 50 55 57 56 58 56 59 56 60 57 61 57 62 57 63 58 58 58 64 58 61 59 63 59 65 59 66 60 60 60 67 60 63 61 61 61 60 61 66 62 68 62 60 62 69 63 63 63 60 63 69 64 59 64 58 64 58 65 63 65 69 65 69 66 68 66 70 66 64 67 65 67 63 67 64 68 71 68 72 68 59 69 73 69 57 69 65 70 64 70 74 70 64 71 58 71 71 71 74 72 75 72 65 72 76 73 74 73 77 73 60 74 78 74 79 74 61 75 80 75 62 75 74 76 64 76 81 76 70 77 82 77 83 77 70 78 83 78 84 78 85 79 86 79 66 79 67 80 85 80 66 80 87 81 67 81 60 81 79 82 87 82 60 82 62 83 78 83 60 83 61 84 88 84 89 84 61 85 90 85 80 85 89 86 90 86 61 86 61 87 91 87 88 87 92 88 91 88 61 88 92 89 61 89 65 89 74 90 76 90 75 90 77 91 93 91 94 91 93 92 77 92 74 92 95 93 93 93 74 93 81 94 95 94 74 94 96 95 81 95 64 95 72 96 96 96 64 96 97 97 71 97 58 97 98 98 97 98 58 98 99 99 98 99 58 99 57 100 99 100 58 100 100 101 73 101 59 101 101 102 100 102 59 102 84 103 101 103 59 103 84 104 59 104 70 104 70 105 59 105 69 105 68 106 69 106 60 106 102 107 92 107 65 107 102 108 65 108 75 108 103 109 102 109 75 109 104 110 103 110 75 110 104 111 75 111 76 111 76 112 41 112 104 112 105 113 25 113 23 113 29 114 27 114 106 114 107 115 108 115 109 115 110 116 111 116 112 116 109 117 113 117 107 117 23 118 107 118 113 118 25 119 105 119 114 119 27 120 25 120 114 120 14 121 29 121 115 121 1 122 14 122 115 122 115 123 2 123 1 123 116 124 115 124 29 124 106 125 116 125 29 125 114 126 106 126 27 126 113 127 105 127 23 127 112 128 108 128 110 128 108 129 112 129 109 129 117 130 55 130 41 130 41 131 94 131 117 131 118 132 119 132 94 132 120 133 121 133 118 133 111 134 122 134 2 134 2 135 113 135 111 135 122 136 82 136 8 136 118 137 122 137 120 137 117 138 94 138 119 138 118 139 123 139 119 139 118 140 124 140 123 140 118 141 125 141 124 141 118 142 121 142 125 142 122 143 126 143 120 143 127 144 126 144 122 144 111 145 127 145 122 145 113 146 112 146 111 146 2 147 105 147 113 147 2 148 128 148 105 148 128 149 2 149 129 149 129 150 116 150 128 150 8 151 2 151 122 151 130 152 131 152 55 152 132 153 133 153 134 153 18 154 40 154 135 154 136 155 135 155 137 155 111 156 11 156 136 156 138 157 139 157 140 157 141 158 142 158 143 158 144 159 145 159 146 159 147 160 137 160 148 160 55 161 117 161 130 161 130 162 132 162 134 162 134 163 131 163 130 163 132 164 141 164 143 164 143 165 133 165 132 165 141 166 138 166 140 166 140 167 142 167 141 167 138 168 144 168 146 168 146 169 139 169 138 169 144 170 147 170 148 170 148 171 145 171 144 171 10 172 135 172 136 172 137 173 147 173 136 173 10 174 18 174 135 174 136 175 11 175 10 175 149 176 150 176 151 176 152 177 153 177 154 177 18 178 152 178 155 178 155 179 40 179 18 179 151 180 153 180 149 180 154 181 155 181 152 181 153 182 156 182 154 182 153 183 151 183 156 183 157 184 158 184 149 184 149 185 158 185 150 185</p>
        </triangles>
      </mesh>
    </geometry>
  </library_geometries>
  <library_visual_scenes>
    <visual_scene id="Scene" name="Scene">
      <node id="U60_Left_Ailerone" name="U60_Left_Ailerone" type="NODE">
        <matrix sid="transform">1 0 0 0 0 1 0 3.72529e-9 0 0 1 -1.07102e-7 0 0 0 1</matrix>
        <instance_geometry url="#U60_Left_Ailerone-mesh" name="U60_Left_Ailerone"/>
      </node>
    </visual_scene>
  </library_visual_scenes>
  <scene>
    <instance_visual_scene url="#Scene"/>
  </scene>
</COLLADA>